<?xml version="1.0" standalone="no"?>
<!DOCTYPE svg PUBLIC "-//W3C//DTD SVG 1.1//EN" "http://www.w3.org/Graphics/SVG/1.1/DTD/svg11.dtd" >
<svg xmlns="http://www.w3.org/2000/svg">
<metadata></metadata>
<defs>
<font id="american_typewriterbold" horiz-adv-x="1024" >
<font-face units-per-em="2048" ascent="1638" descent="-410" />
<missing-glyph horiz-adv-x="512" />
<glyph unicode="&#xfb01;" horiz-adv-x="1380" d="M35 129q0 115 94 115l53 -13q10 -2 17 -2q39 0 39 115v416q0 31 -8.5 42t-36.5 11h-64q-94 0 -94 98q0 111 98 111h51q39 0 49.5 11t12.5 52q12 315 477 316q201 0 312.5 -56.5t111.5 -156.5q0 -57 -45 -93t-115 -36q-66 0 -107.5 34.5t-41.5 90.5q-53 27 -111 26 q-176 0 -176 -131v-24q0 -39 42 -46.5t245 -7.5q84 0 219 9q25 2 61 4q8 2 25 2q41 0 41 -66v-616q0 -104 41 -105q14 0 39 7q10 4 32 4q80 0 80 -107q0 -141 -114 -141q-27 0 -119 10q-55 6 -125 6q-33 0 -94.5 -8t-89.5 -8q-94 0 -95 137q0 100 68 100q8 0 14 -2h15 q29 0 30 54l2 63v395q0 55 -30 68q-18 6 -64 6h-104l-49 -2q-47 -2 -58.5 -17.5t-11.5 -82.5v-371q0 -100 20 -109q8 -4 21 -4h16q6 2 17 2q61 0 61 -106q0 -57 -24.5 -94t-65.5 -37q-10 0 -100 12q-31 4 -101 4q-90 0 -139 -6q-82 -10 -106 -10q-51 0 -83 38t-32 99z" />
<glyph unicode="&#xfb02;" horiz-adv-x="1417" d="M35 123q0 117 86 117q10 0 35 -4q35 -10 45 -11q25 0 31 20.5t6 104.5v385q0 49 -6.5 61.5t-32.5 12.5h-45q-119 0 -119 106t100 107h55q37 0 47.5 15.5t12.5 72.5q10 293 430 293q63 0 168 -14q133 -18 192 -19q23 0 76 4q10 2 27 2q43 0 55 -30q6 -18 6 -70v-985 q0 -23 6 -35q8 -25 37 -25q16 0 27 5q25 6 39 6q80 0 80 -101q0 -150 -133 -149q-12 0 -50 4l-90 10q-37 4 -102 4q-63 0 -123 -10q-35 -6 -49 -6q-39 0 -63.5 38t-24.5 95q0 102 63 102q12 0 19 -2h14q35 0 35 86v684q0 125 -40 171t-144 46q-152 0 -152 -129v-16 q0 -31 9 -39t48 -8h54q113 0 112 -102q0 -106 -104 -107h-60q-43 0 -52 -12.5t-9 -69.5v-420q0 -84 43 -84h16q4 2 15 2q61 0 61 -106q0 -57 -27.5 -94t-70.5 -37q-4 0 -33 4q-88 12 -154 12q-45 0 -100 -4q-20 0 -76 -6q-47 -6 -73 -6q-49 0 -83 38t-34 93z" />
<glyph horiz-adv-x="0" />
<glyph horiz-adv-x="682" />
<glyph horiz-adv-x="0" />
<glyph horiz-adv-x="0" />
<glyph horiz-adv-x="0" />
<glyph unicode="&#x9;" horiz-adv-x="512" />
<glyph unicode="&#xd;" horiz-adv-x="681" />
<glyph horiz-adv-x="0" />
<glyph unicode=" "  horiz-adv-x="512" />
<glyph unicode="&#x09;" horiz-adv-x="512" />
<glyph unicode="&#xa0;" horiz-adv-x="512" />
<glyph unicode="!" horiz-adv-x="894" d="M242 1264q0 139 204 139q205 0 205 -139q0 -39 -4 -82l-63 -660q-10 -102 -97 -102h-79q-86 0 -97 102l-63 660q-6 63 -6 82zM252 160q0 80 57.5 137t134.5 57q80 0 137.5 -57t57.5 -137t-57.5 -137.5t-137.5 -57.5q-78 0 -135 57.5t-57 137.5z" />
<glyph unicode="&#x22;" horiz-adv-x="845" d="M84 1366h295l-51 -549h-195zM467 1366h295l-49 -549h-197z" />
<glyph unicode="#" horiz-adv-x="1228" d="M12 373l37 239h207l29 170h-207l37 238h207l55 346h270l-57 -346h174l55 346h273l-56 -346h205l-37 -238h-205l-26 -170h207l-35 -239h-209l-59 -373h-275l62 373h-175l-59 -373h-270l61 373h-209zM526 612h174l27 170h-174z" />
<glyph unicode="$" horiz-adv-x="1341" d="M164 348q0 90 47 144.5t123 54.5q70 0 115 -44t45 -110q0 -55 -31 -96q37 -33 82 -35l28 320q-374 92 -374 383q0 166 116.5 270t317.5 117l8 84q8 84 86 84q70 0 70 -56v-20l-9 -94q147 -12 234.5 -83t87.5 -177q0 -72 -46 -120t-116 -48q-61 0 -102 36.5t-41 90.5 q0 14 4 34q2 8 4 17v12q-8 8 -31 10l-20 2l-23 -256l13 -4q156 -51 217 -80q84 -39 129 -92q80 -94 80 -239q0 -193 -134.5 -308.5t-373.5 -130.5l-4 -57q-4 -51 -13 -70q-14 -29 -57 -28q-86 0 -86 78v10l6 71q-150 10 -251 104.5t-101 225.5zM496 1012q0 -80 104 -117 l21 227q-125 -25 -125 -110zM686 258q80 2 131 45t51 105q1 122 -157 155z" />
<glyph unicode="%" horiz-adv-x="1640" d="M51 1030q0 180 92.5 276.5t262.5 96.5q156 0 264 -76l53 -37q109 -76 199 -76q111 0 194 93l21 22q41 45 100 45q84 0 84 -51q0 -25 -49 -100l-772 -1186q-29 -43 -49 -57q-27 -16 -74 -17q-84 0 -84 43q0 24 47 96l649 992q-51 -35 -108 -35q-61 0 -121 37q8 -39 8 -72 q0 -399 -356 -399q-174 0 -267.5 104.5t-93.5 300.5zM283 1016q0 -207 131 -207q123 0 123 201q0 205 -121 204q-133 0 -133 -198zM877 358q0 184 92 282.5t266 98.5q352 0 352 -385q0 -391 -356 -391q-170 0 -262 103.5t-92 291.5zM1108 352q0 -205 127 -205q123 0 123 209 q0 199 -121 199q-129 0 -129 -203z" />
<glyph unicode="&#x26;" horiz-adv-x="1753" d="M55 410q0 215 178 333q51 35 166 97q12 6 41 20q-88 135 -88 244q0 133 102.5 216t268.5 83q158 0 258 -80t100 -205q0 -121 -100 -213q-47 -43 -137 -100l125 -166q6 14 16 37q43 96 80 149q55 80 148.5 128t191.5 48q131 0 224 -79.5t93 -194.5q0 -90 -60 -153.5 t-146 -63.5q-63 0 -110.5 41t-47.5 98q0 31 18 56l13 16q4 12 4 16q0 12 -23 13q-70 0 -131 -99q-49 -78 -119 -223q6 -10 19 -25q61 -82 96 -106q49 -37 131 -37q174 -2 174 -145q0 -55 -30.5 -90t-77.5 -35q-25 0 -71 7t-71 7q-45 0 -92 -6t-61 -6q-43 0 -80 28 q-14 12 -60 66l-49 57q-70 -94 -166 -135q-109 -47 -227 -47q-213 0 -356.5 129t-143.5 320zM403 412q0 -78 53.5 -127t139.5 -49q63 0 104.5 22.5t96.5 85.5l-215 305q-111 -76 -145 -120t-34 -117zM657 1118q0 -57 58 -131q102 35 102 125q0 37 -23.5 61.5t-58.5 24.5 q-78 0 -78 -80z" />
<glyph unicode="'" horiz-adv-x="460" d="M84 1366h295l-51 -549h-195z" />
<glyph unicode="(" horiz-adv-x="1304" d="M291 510q0 174 44 302t146 253q84 100 193.5 182t239.5 134.5t223 52.5q53 0 90 -28t37 -67q0 -45 -35 -76.5t-133 -78.5q-190 -90 -301 -228q-156 -193 -156 -444q0 -254 156 -444q111 -135 301 -226q96 -45 132 -77.5t36 -77.5q0 -41 -37 -69t-88 -28 q-92 0 -223.5 52.5t-243.5 136.5q-264 194 -342 450q-39 127 -39 281z" />
<glyph unicode=")" horiz-adv-x="1304" d="M41 -315q0 45 35 77.5t135 79.5q193 90 301 226q156 193 156 444q0 252 -156 444q-113 139 -301 228q-98 47 -134 77.5t-36 75.5q0 41 37 69t88 28q94 0 223 -52.5t244 -136.5q266 -194 344 -450q39 -127 39 -281q0 -317 -193 -553q-84 -102 -192.5 -184t-239.5 -134.5 t-223 -52.5q-53 0 -90 28t-37 67z" />
<glyph unicode="*" horiz-adv-x="1341" d="M348 1171q0 39 26.5 68t63.5 29q45 0 105 -66l41 -45q18 -20 26 -20q16 0 17 20q-2 10 -2 8l-7 19l-20 67l-10 25q-6 14 -6 37q0 90 90 90q88 0 88 -90q0 -23 -6 -37l-11 -25l-26 -86q-2 -4 -2 -10q0 -18 16 -18q8 0 27 20l41 45q59 66 104 66q37 0 63.5 -29t26.5 -68 q0 -76 -123 -96l-86 -14q-12 0 -12 -12q0 -10 33 -17l67 -12q115 -20 115 -100q0 -39 -24.5 -66t-61.5 -27q-45 0 -104 66l-54 59q-2 6 -12 6q-14 0 -14 -16l2 -2l4 -16l20 -66l9 -29q6 -23 6 -38q0 -96 -86 -97q-86 0 -86 92q0 29 12 72l18 66l7 16v2q0 14 -13 14 q-10 0 -12 -4l-12 -14l-43 -45q-16 -20 -35 -39q-27 -27 -66 -27q-37 0 -62.5 27t-25.5 66q0 80 115 100l68 12q33 6 32 17q0 12 -12 12l-86 14q-123 20 -123 96z" />
<glyph unicode="+" d="M68 573v246h311v314h266v-314h311v-246h-311v-313h-266v313h-311z" />
<glyph unicode="," horiz-adv-x="671" d="M111 180q0 86 56 146.5t138 60.5q100 0 169 -84t69 -207q0 -248 -221 -516q-53 -66 -99 -65q-76 0 -76 84q0 49 46 114q115 166 114 228q0 31 -45 43q-151 42 -151 196z" />
<glyph unicode="-" horiz-adv-x="671" d="M72 532q0 133 108 134h62q55 -2 94 -2q41 0 94 2h59q111 0 111 -127q0 -82 -24.5 -115t-86.5 -33q-25 0 -76 2t-77 2q-27 0 -78 -2t-76 -2q-111 0 -110 141z" />
<glyph unicode="." horiz-adv-x="671" d="M129 174q0 86 60.5 146.5t146.5 60.5t146.5 -60.5t60.5 -146.5t-60.5 -147.5t-146.5 -61.5t-146.5 61.5t-60.5 147.5z" />
<glyph unicode="/" horiz-adv-x="1191" d="M53 -367q0 35 78 207q16 37 70 162q82 195 104 252l191 494l106 303l57 174q35 109 71 143.5t112 34.5q170 0 170 -70q0 -29 -33 -102l-51 -115q-8 -20 -74 -188q-20 -49 -94 -226q-24 -59 -94 -237l-66 -168l-35 -84l-82 -231l-61 -187q-53 -158 -83 -190.5t-130 -32.5 q-156 0 -156 61z" />
<glyph unicode="0" horiz-adv-x="1341" d="M63 682q0 338 160 529.5t441 191.5q289 0 451.5 -187.5t162.5 -517.5q0 -350 -156.5 -542.5t-443.5 -192.5q-293 0 -454 188.5t-161 530.5zM410 682q0 -205 69.5 -321.5t190.5 -116.5q123 0 192.5 116.5t69.5 321.5q0 207 -69.5 323.5t-192.5 116.5q-121 0 -190.5 -117.5 t-69.5 -322.5z" />
<glyph unicode="1" horiz-adv-x="1341" d="M256 139q0 61 35 98t92 37q18 0 56 -5t57 -5q49 0 61 66q2 14 2 106v565q0 96 -70 97q-12 0 -45 -4q-41 -10 -69 -11q-119 0 -119 138q0 70 43 111.5t115 41.5q35 0 105.5 -10t105.5 -10q43 0 118 14q33 6 68 6q55 0 76 -31q14 -25 14 -88v-917q0 -74 55 -74q16 0 47 5 t48 5q133 0 133 -133q0 -70 -39 -111.5t-103 -41.5q-14 0 -20 2l-125 14q-53 6 -186 6q-123 0 -154 -4l-123 -16q-8 -2 -22 -2q-70 0 -113 42t-43 109z" />
<glyph unicode="2" horiz-adv-x="1341" d="M70 268q0 322 481 510q184 72 237.5 113t53.5 110q0 61 -55.5 98.5t-145.5 37.5q-88 0 -164 -41q39 -51 39 -105q0 -78 -57.5 -132t-139.5 -54q-92 0 -150 61.5t-58 157.5q0 168 154.5 273.5t402.5 105.5q250 0 396 -110.5t146 -299.5q0 -199 -161 -307 q-125 -84 -365 -156q-186 -55 -243.5 -94t-71.5 -121q92 111 233 111q102 0 212 -83t157 -83q31 0 69 31q-123 25 -122 135q0 63 46 107.5t113 44.5q88 0 145.5 -72t57.5 -180q0 -143 -99.5 -250t-232.5 -107q-139 0 -293 121q-106 84 -139 84q-20 0 -39 -20q12 -23 12 -43 q0 -63 -48 -105.5t-122 -42.5q-106 0 -177.5 87t-71.5 218z" />
<glyph unicode="3" horiz-adv-x="1341" d="M80 360q0 98 61.5 166t151.5 68q78 0 134 -52.5t56 -127.5q0 -63 -51 -123q51 -39 85 -50.5t99 -11.5q117 0 191 57.5t74 147.5q0 174 -258 182q-94 4 -95 99q0 79 70 155l203 224h-293q-88 0 -88 -52q0 -18 8 -54t8 -54q0 -174 -162 -174q-68 0 -110.5 42t-42.5 109 q0 33 11 100.5t11 100.5q0 29 -8 83t-8 81q0 98 115 98h12q123 -4 258 -4l596 4q66 0 90.5 -27.5t24.5 -101.5q0 -106 -76 -186l-238 -248q156 -16 243 -113.5t87 -255.5q0 -217 -168 -348t-446 -131q-242 0 -393.5 110.5t-151.5 286.5z" />
<glyph unicode="4" horiz-adv-x="1341" d="M10 502q0 96 84 203l469 600q78 98 248 98q127 0 177 -38t48 -134l-10 -592h156q123 0 123 -121q0 -125 -138 -125h-141v-31q0 -57 10 -77q14 -31 64 -31q4 0 30 4q51 8 50 8h12q47 0 76.5 -35.5t29.5 -93.5q0 -66 -37.5 -106.5t-95.5 -40.5q-39 0 -118 12q-53 8 -170 8 q-145 0 -199 -6q-125 -14 -154 -14q-68 0 -110.5 40t-42.5 103q0 131 151 131q2 0 94 -10q20 -2 39 -2q72 0 72 104v31h-580q-137 0 -137 115zM371 633h350l6 454z" />
<glyph unicode="5" horiz-adv-x="1341" d="M104 317q0 96 59.5 157t151.5 61q80 0 132.5 -47.5t52.5 -118.5q0 -47 -35 -97q70 -43 158 -43q104 0 171.5 56.5t67.5 142.5q0 88 -73.5 146.5t-182.5 58.5q-59 0 -131 -19q-104 -27 -135 -26q-78 0 -131 52t-53 130q0 6 2 23v24l37 340q-2 63 18 170q20 45 104 45 q-2 0 96.5 -4t204.5 -2l357 8h88q90 0 90 -76q0 -31 -3 -51t-1 -53l6 -109v-14q0 -63 -42 -104t-107 -41q-102 0 -136 106q-10 35 -27.5 43t-58.5 8h-225q-35 0 -44 -10t-13 -49l-17 -154q150 41 248 41q209 0 344 -126t135 -320q0 -219 -167.5 -360.5t-428.5 -141.5 q-215 0 -363.5 102.5t-148.5 251.5z" />
<glyph unicode="6" horiz-adv-x="1341" d="M94 641q0 348 178.5 555t479.5 207q180 0 291.5 -79t111.5 -204q0 -82 -51 -133t-135 -51q-74 0 -120 34t-46 87q0 33 26 76q-41 12 -98 12q-264 0 -274 -352q172 102 331 102q209 0 348.5 -129t139.5 -326q0 -207 -157.5 -342t-399.5 -135q-285 0 -455 184.5t-170 493.5 zM469 436q0 -88 68.5 -147.5t169.5 -59.5q100 0 168.5 59.5t68.5 147.5q0 86 -67.5 143.5t-169.5 57.5q-100 0 -169 -58.5t-69 -142.5z" />
<glyph unicode="7" horiz-adv-x="1341" d="M96 893q0 43 6 84q16 109 17 127q0 27 -10.5 81t-10.5 81q0 57 34 94t87 37q57 0 80 -37q18 -27 23 -92q80 135 260 135q115 0 221 -53l94 -47q33 -16 55 -17q27 0 45 27l31 45q29 41 88 41q68 0 114 -57.5t46 -145.5q0 -147 -113 -287q-33 -39 -104 -118 q-147 -162 -199.5 -257.5t-52.5 -201.5q0 -35 10 -105.5t10 -105.5q0 -72 -47 -115t-127 -43q-111 0 -174 85t-63 235q0 240 159 403q78 80 189 170q133 109 197 180q-86 -39 -152 -39q-88 0 -215 72l-94 53q-35 18 -64 19q-61 0 -61 -68q0 -2 4 -18l18 -70q10 -39 11 -72 q0 -164 -160 -163q-152 0 -152 143z" />
<glyph unicode="8" horiz-adv-x="1341" d="M72 397q0 231 256 346q-188 82 -189 271q0 170 150.5 279.5t382.5 109.5q231 0 381.5 -110.5t150.5 -280.5q0 -186 -190 -269q258 -115 258 -346q0 -193 -166 -313.5t-434 -120.5t-434 119.5t-166 314.5zM406 424q0 -84 71.5 -136t190.5 -52q121 0 194.5 52t73.5 136 q0 82 -74.5 137t-189.5 55q-117 0 -191.5 -54t-74.5 -138zM481 1020q0 -61 53.5 -101t135.5 -40t137 39.5t55 99.5q0 57 -56 96t-140 39q-82 0 -133.5 -37t-51.5 -96z" />
<glyph unicode="9" horiz-adv-x="1341" d="M82 897q0 225 152.5 365.5t396.5 140.5q289 0 457.5 -186.5t168.5 -503.5q0 -346 -182 -548t-497 -202q-190 0 -313.5 73t-123.5 183q0 80 57.5 131t145.5 51q78 0 129 -38.5t51 -98.5q0 -14 -6 -39q37 -12 68 -12q174 0 250 121q43 70 63 192q-178 -96 -328 -96 q-213 0 -351 132t-138 335zM424 922q0 -92 65.5 -153.5t161.5 -61.5q100 0 168 62.5t68 152.5q0 84 -72 149.5t-164 65.5q-90 0 -158.5 -64.5t-68.5 -150.5z" />
<glyph unicode=":" horiz-adv-x="671" d="M129 174q0 86 60.5 146.5t146.5 60.5t146.5 -60.5t60.5 -146.5t-60.5 -147.5t-146.5 -61.5t-146.5 61.5t-60.5 147.5zM129 850q0 86 60.5 147.5t146.5 61.5t146.5 -61.5t60.5 -147.5t-60.5 -146.5t-146.5 -60.5t-146.5 60.5t-60.5 146.5z" />
<glyph unicode=";" horiz-adv-x="671" d="M111 180q0 86 56 146.5t138 60.5q100 0 169 -84t69 -207q0 -248 -221 -516q-53 -66 -99 -65q-76 0 -76 84q0 49 46 114q115 166 114 228q0 31 -45 43q-151 42 -151 196zM111 850q0 86 60 147.5t146 61.5t147.5 -61.5t61.5 -147.5t-61.5 -146.5t-147.5 -60.5t-146 60.5 t-60 146.5z" />
<glyph unicode="&#x3c;" d="M68 573v224l888 450v-262l-608 -301l606 -303l2 -262z" />
<glyph unicode="=" d="M68 403v232h888v-232h-888zM68 758v231h888v-231h-888z" />
<glyph unicode="&#x3e;" d="M68 119v264l608 301l-606 301l-2 262l888 -452v-224z" />
<glyph unicode="?" horiz-adv-x="1267" d="M109 995q0 176 161.5 292t409.5 116q242 0 389.5 -119t147.5 -313q0 -86 -36 -167t-96 -124q-78 -59 -243 -96q-49 -10 -63.5 -24.5t-16.5 -49.5q-2 -57 -22.5 -73.5t-90.5 -20.5l-57 -4h-21q-80 0 -110.5 31.5t-30.5 113.5q0 104 48 154.5t177 79.5q201 45 201 176 q0 74 -59.5 120t-155.5 46q-113 0 -174 -56q63 -51 63 -114q0 -80 -61 -136.5t-147 -56.5q-94 0 -153.5 62.5t-59.5 162.5zM397 160q0 80 56.5 137t136.5 57t137 -57t57 -137t-57 -137.5t-137 -57.5t-136.5 57.5t-56.5 137.5z" />
<glyph unicode="@" horiz-adv-x="1501" d="M68 670q0 303 208.5 511t511.5 208q279 0 462.5 -171t183.5 -432q0 -186 -101.5 -328.5t-234.5 -142.5q-57 0 -101.5 31t-58.5 80q-90 -129 -254 -129q-123 0 -206 92t-83 229q0 164 107.5 287t251.5 123q135 0 198 -98l15 78l182 -2l-76 -388q-12 -63 -12 -90 q0 -63 45 -63q47 0 92 65q76 109 76 256q0 193 -133 316t-344 123q-233 0 -392 -161t-159 -396q0 -170 90 -309.5t233 -186.5q98 -33 230 -33q176 0 368 62l41 -164q-190 -61 -415 -62q-313 0 -508 183q-217 205 -217 512zM604 627q0 -63 36 -103.5t93 -40.5q70 0 122 63.5 t52 149.5l-2 11q-4 59 -39 95t-88 36q-70 0 -122 -63.5t-52 -147.5z" />
<glyph unicode="A" horiz-adv-x="1640" d="M-18 131q0 143 108 143q12 0 39 -3t39 -3q39 0 63 43q6 12 29 76l283 805q49 137 110 172q43 22 186 22h13q172 0 217 -21.5t74 -119.5l262 -872q31 -104 72 -105q12 0 43 6h22q115 0 115 -135q0 -68 -41 -108.5t-107 -40.5q-29 0 -75 6q-57 10 -76 10q-45 4 -117 4 q-78 0 -104 -4q-104 -16 -131 -16q-55 0 -91 42t-36 105q0 121 77 121q10 0 31 -3t31 -3q39 0 39 43q0 55 -22.5 92t-57.5 37h-272q-117 0 -117 -139q0 -33 35 -33q10 0 30.5 3t30.5 3q76 0 76 -121q0 -66 -35 -106.5t-92 -40.5q-29 0 -127 14q-43 6 -121 6q-84 0 -131 -6 q-109 -14 -129 -14q-63 0 -103 39t-40 102zM719 707q0 -25 51 -25h127q53 0 53 29q0 -3 -4 26l-98 420l-127 -436q-2 -6 -2 -14z" />
<glyph unicode="B" horiz-adv-x="1527" d="M37 139q0 57 31.5 96t78.5 39q18 0 50 -7t49 -7q55 0 55 139v568q0 137 -55 137q-16 0 -48 -7t-51 -7q-47 0 -78.5 38.5t-31.5 96.5q0 68 40 109.5t105 41.5h8q6 -2 9 -2l145 -14q61 -6 164 -6q80 0 127 4l139 12q47 4 137 4q135 0 244 -28.5t176.5 -113.5t67.5 -194 q0 -225 -252 -284l51 -21q160 -63 211 -168q39 -80 39 -166q0 -195 -140.5 -302t-392.5 -107q-80 0 -167 6l-146 10q-57 4 -125 4q-49 0 -143 -10t-135 -10h-17q-66 0 -105.5 41t-39.5 108zM653 387q0 -78 45 -107.5t164 -29.5q90 0 146.5 45t56.5 119q0 84 -76 135t-201 51 h-61q-45 0 -59.5 -13.5t-14.5 -49.5v-150zM653 901q0 -41 17 -51q10 -8 51 -8h63q106 0 169 39t63 104q0 137 -213 137q-78 0 -107 -12q-43 -20 -43 -88v-121z" />
<glyph unicode="C" horiz-adv-x="1304" d="M61 672q0 340 156 535.5t426 195.5q197 0 342 -143q-2 6 -2 20q0 115 123 115q57 0 93 -36t36 -93q0 -27 -6 -78q-10 -84 -10 -121q0 -27 7 -79t7 -79q0 -63 -46 -102t-120 -39q-152 0 -152 123v6l3 64q2 68 -55.5 111.5t-145.5 43.5q-274 0 -275 -434 q0 -225 66.5 -328.5t212.5 -103.5q90 0 147.5 42t55.5 109l-2 74v6q0 59 41 96q43 39 110 39q86 0 136.5 -57t50.5 -156q0 -195 -155 -318.5t-398 -123.5q-299 0 -472.5 190.5t-173.5 520.5z" />
<glyph unicode="D" horiz-adv-x="1527" d="M37 139q0 57 31.5 96t78.5 39q18 0 51.5 -7t47.5 -7q55 0 55 139v568q0 137 -55 137q-16 0 -48 -7t-51 -7q-47 0 -78.5 38.5t-31.5 96.5q0 68 41 108.5t106 40.5q35 0 144 -12q72 -8 137 -8q25 0 115 6l149 10q59 4 117 4q371 0 530 -313q90 -176 90 -379t-86 -373 t-229 -250q-125 -69 -298 -69h-5q-70 0 -119 4l-149 12q-49 4 -115 4q-82 0 -137 -6l-82 -8q-47 -6 -62 -6q-66 0 -106.5 41t-40.5 108zM662 360q0 -63 23.5 -85.5t92.5 -22.5q113 0 203 92q104 109 104 322q0 240 -104 354q-47 51 -102 74q-48 18 -101 18q-70 0 -93 -21.5 t-23 -84.5v-646z" />
<glyph unicode="E" horiz-adv-x="1527" d="M37 139q0 57 31.5 96t81.5 39q16 0 48.5 -7t47.5 -7q55 0 55 139v568q0 137 -55 137q-12 0 -49 -8q-27 -6 -47 -6q-47 0 -80 38.5t-33 96.5q0 149 147 149h2q35 0 142 -8q160 -12 309 -12q14 0 246 6q168 4 221 8q88 6 184 6q115 0 115 -100q0 -33 -7 -96.5t-7 -96.5 t9 -93t9 -91q0 -59 -44 -100t-110 -41q-153 0 -153 155q0 29 9 76t9 70q0 45 -47 55q-16 4 -86 4h-203q-68 0 -90 -12q-31 -18 -30 -82v-115q0 -35 9 -52t48 -17q90 0 90 65v27q-2 12 -2 31q0 86 100 86q104 0 105 -105q0 -29 -4 -63q-8 -68 -9 -125q0 -53 8.5 -135 t8.5 -115q0 -121 -109 -121q-102 0 -102 104v11q0 10 4 49q0 49 -88 49q-59 0 -59 -66v-153q0 -72 25.5 -97.5t94.5 -25.5h119q131 0 183.5 22.5t52.5 79.5q0 29 -6.5 69t-6.5 67q0 76 43 118.5t117 42.5q150 0 150 -164q0 -53 -7 -112q-10 -98 -10 -123q0 -23 10 -88 q6 -39 7 -80q0 -96 -121 -96q-39 0 -129 6q-150 10 -477 14h-183q-102 0 -170 -6l-155 -14q-2 0 -9 -2h-10q-63 0 -103 43t-40 108z" />
<glyph unicode="F" horiz-adv-x="1454" d="M37 139q0 59 31.5 97t81.5 38q16 0 48.5 -7t47.5 -7q41 0 51 53q4 20 4 86v568q0 66 -4 84q-10 53 -51 53q-16 0 -48 -7t-51 -7q-47 0 -78.5 38.5t-31.5 96.5q0 149 149 149h2q47 0 152 -8q158 -12 258 -12q70 0 156 2q57 2 229 4q70 0 170 4l123 10q25 2 20 2 q102 0 103 -90q0 -37 -8 -82q-12 -68 -13 -110q0 -33 11.5 -96.5t11.5 -96.5q0 -72 -43 -117t-113 -45t-109.5 45t-39.5 121q0 23 8 78q6 41 6 64q0 69 -99 69h-3h-224q-80 0 -101 -19.5t-21 -105.5v-96q0 -63 55 -64q86 0 86 60q0 6 -4 39v16q-2 10 -2 15q0 79 94 79h2 q113 0 113 -106q0 -20 -4.5 -65.5t-4.5 -116.5q0 -41 8.5 -124t8.5 -124q0 -125 -107 -125q-108 0 -108 113q0 6 2 14v10v23q0 51 -78 51q-39 0 -50 -10t-11 -45v-119l2 -70q0 -33 6 -51q10 -35 55 -35q23 0 66 7t65 7q121 0 121 -139q0 -66 -42 -105.5t-112 -39.5 q-53 0 -158.5 10t-158.5 10q-104 0 -166 -6q-141 -14 -158 -14q-66 0 -105.5 41t-39.5 108z" />
<glyph unicode="G" horiz-adv-x="1454" d="M61 657q0 344 160 545t434 201q215 0 359 -146q18 121 123 121q127 0 127 -123q0 -20 -9 -81q-12 -92 -12 -125q0 -37 4 -56q4 -66 4 -73q0 -53 -47 -89t-121 -36q-119 0 -143.5 116.5t-70.5 160.5t-146 44q-133 0 -206 -124t-73 -351q0 -193 71 -300.5t196 -107.5 q80 0 132 46.5t52 115.5q0 86 -72 86h-12q-8 -2 -14 -2q-33 -4 -37 -4q-41 0 -69.5 36t-28.5 89q0 61 40.5 98t106.5 37q43 0 130 -11t132 -11q68 0 150 10q66 8 90 8q66 0 105.5 -40t39.5 -107q0 -59 -28.5 -99.5t-71.5 -40.5l-49 5q-55 0 -56 -93q0 -39 2 -82l4 -88 q2 -45 3 -86q0 -137 -152 -137q-143 0 -143 100v13q-141 -113 -322 -113q-158 0 -297 83t-203 216q-82 170 -82 395z" />
<glyph unicode="H" horiz-adv-x="1753" d="M37 139q0 57 32.5 96t80.5 39q16 0 47.5 -7t48.5 -7q55 0 55 139v568q0 137 -55 137q-16 0 -48 -7t-51 -7q-47 0 -78.5 38.5t-31.5 96.5q0 68 41 108.5t106 40.5q20 0 131 -12q74 -8 148 -8q63 0 119 8q82 12 116 12q61 0 98.5 -42t37.5 -109q0 -123 -91 -123h-18 q-8 2 -23 2q-35 0 -40 -43v-70v-143h430v143q0 63 -2 70q-6 43 -39 43q-14 0 -25 -2h-18q-90 0 -90 125q0 68 37.5 108.5t99.5 40.5q41 0 123 -10t122 -10q53 0 134 8q139 14 137 14q66 0 105.5 -42t39.5 -109q0 -57 -31.5 -96t-78.5 -39q-18 0 -50 7t-49 7q-41 0 -53 -51 q-4 -20 -4 -86v-568q0 -139 55 -139q16 0 49 7t50 7q47 0 79.5 -38.5t32.5 -96.5q0 -68 -40 -109.5t-105 -41.5h-8q-4 2 -9 2q-41 0 -122.5 10t-124.5 10q-80 0 -136 -8q-84 -12 -118 -12q-59 0 -97 42t-38 109q0 125 90 125q12 0 18 -2h14q8 -2 11 -2q33 0 39 45q2 23 2 70 v203h-430v-203v-72q6 -43 40 -43q2 0 11 2h12q6 2 18 2q90 0 91 -125q0 -68 -38 -109.5t-98 -41.5q-37 0 -111.5 10t-113.5 10q-88 0 -154 -8q-98 -12 -137 -12q-66 0 -105.5 41t-39.5 108z" />
<glyph unicode="I" horiz-adv-x="968" d="M37 139q0 59 31.5 97t81.5 38q16 0 48 -7t48 -7q41 0 51 53q4 20 4 86v568q0 66 -4 84q-10 53 -51 53q-16 0 -48 -7t-51 -7q-47 0 -78.5 38.5t-31.5 96.5q0 70 40 109.5t107 39.5q31 0 144 -12q76 -8 147 -8q57 0 165 10t142 10q150 0 150 -149q0 -57 -32 -96t-79 -39 q-16 0 -49 7t-49 7q-55 0 -55 -137v-568q0 -139 55 -139q16 0 49 7t49 7q47 0 79 -38.5t32 -96.5q0 -66 -40 -108.5t-101 -42.5q-12 0 -19 2l-129 16q-49 6 -108 6q-92 0 -193 -10q-121 -12 -158 -12q-66 0 -106.5 41t-40.5 108z" />
<glyph unicode="J" horiz-adv-x="1380" d="M31 379q0 145 100 248.5t240 103.5q111 0 188.5 -64.5t77.5 -156.5q0 -74 -48 -125t-116 -51q-74 0 -113 78q-23 -31 -22 -60q0 -55 50 -91t128 -36q139 0 207 101q43 63 43 198v473q0 57 -12 78q-16 29 -66 29q-23 0 -66.5 -7t-66.5 -7q-45 0 -74.5 36.5t-29.5 96.5 q0 70 42 110.5t109 40.5q45 0 117 -8q106 -12 219 -12q68 0 165 10t126 10q72 0 117 -41t45 -106q0 -57 -35 -97t-88 -40q-27 0 -51 8q-43 6 -41 6q-51 0 -52 -107v-538q0 -133 -33.5 -213t-117.5 -148q-168 -135 -410 -135q-229 0 -380.5 118t-151.5 298z" />
<glyph unicode="K" horiz-adv-x="1677" d="M37 139q0 59 31.5 97t81.5 38q16 0 47.5 -7t48.5 -7q55 0 55 139v568q0 66 -4 84q-10 53 -51 53q-16 0 -48 -7t-51 -7q-47 0 -78.5 38.5t-31.5 96.5q0 70 40 109.5t107 39.5q45 0 138.5 -10t142.5 -10q39 0 116.5 10t116.5 10q61 0 98.5 -41t37.5 -110q0 -123 -91 -123 h-18q-8 2 -25 2q-33 0 -38 -43v-72v-221l296 274q72 66 72 97q0 16 -8 24t-27 19q-39 29 -39 75q0 53 37 86t97 33q39 0 113.5 -10t113.5 -10q43 0 119 12q51 8 88 8q68 0 107.5 -38t39.5 -103q0 -59 -31.5 -101t-74.5 -42q-14 0 -40 7t-40 7q-25 0 -70 -35l-37 -29 l-198 -174q-61 -53 -62 -75q0 -12 23 -52l53 -94l145 -248q80 -137 127 -137q12 0 42 7t46 7q111 0 111 -135q0 -68 -41 -108.5t-108 -40.5q-39 0 -93 8q-80 12 -143 12q-37 0 -109.5 -10t-109.5 -10q-53 0 -90 32.5t-37 81.5q0 47 57 95q27 20 27 45q0 23 -33 80l-108 188 q-37 66 -52 66q-12 0 -22 -11l-21 -20l-120 -101v-69v-72q6 -43 40 -43q2 0 11 2h12q6 2 18 2q90 0 91 -127q0 -68 -37 -108.5t-101 -40.5q-29 0 -84 8q-63 8 -86 10q-31 2 -71 2q-47 0 -136.5 -10t-134.5 -10q-66 0 -106.5 41t-40.5 108z" />
<glyph unicode="L" horiz-adv-x="1417" d="M37 139q0 59 31.5 97t81.5 38q16 0 47.5 -7t48.5 -7q55 0 55 139v568q0 137 -55 137q-16 0 -48 -7t-51 -7q-47 0 -78.5 38.5t-31.5 96.5q0 149 149 149h2q29 0 177 -12q98 -8 178 -8q68 0 133 8q98 12 141 12q68 0 108 -40t40 -107q0 -59 -31 -98t-78 -39q-23 0 -64.5 7 t-64.5 7q-66 0 -65 -113v-577q0 -78 6 -101q14 -53 69 -61q25 -4 72 -4h100q166 0 166 102q0 27 -8 66q-10 47 -10 80q0 66 49 109.5t123 43.5q164 0 164 -162q0 -37 -8.5 -106.5t-8.5 -104.5q0 -41 4 -81q8 -82 9 -93q0 -112 -132 -112h-2q-68 0 -198 8q-197 12 -565 12 q-90 0 -132 -4l-161 -16q-2 0 -9 -2h-10q-63 0 -103 43t-40 108z" />
<glyph unicode="M" horiz-adv-x="2199" d="M37 139q0 59 31.5 97t81.5 38q16 0 47.5 -7t48.5 -7q41 0 51 53q4 20 4 86v568q0 66 -4 84q-10 53 -51 53q-16 0 -48 -7t-51 -7q-47 0 -78.5 38.5t-31.5 96.5q0 149 149 149h2q49 0 164 -10t172 -10q92 0 193 12q68 8 106 8q51 0 72 -24.5t39 -102.5l170 -747l178 717 q23 90 50.5 123.5t78.5 33.5q45 0 137 -10t140 -10q49 0 243 16q55 4 82 4q68 0 109 -40t41 -109q0 -57 -32 -96t-79 -39q-18 0 -51 7t-47 7q-55 0 -56 -137v-568q0 -139 54 -139q16 0 49 7t49 7q47 0 80 -38.5t33 -96.5q0 -70 -41 -109.5t-109 -39.5q-39 0 -131 12 q-61 8 -123 8q-39 0 -114.5 -10t-114.5 -10q-61 0 -99 41t-38 108q0 127 84 127q12 0 18 -2h14q8 -2 11 -2q33 0 39 45q2 20 2 70v772l-285 -1008q-37 -131 -121 -131h-131q-82 0 -113 117l-272 1022v-772q0 -96 18 -109q6 -6 23 -6q4 0 12 2h13q6 2 18 2q82 0 82 -125 q0 -70 -37 -110.5t-98 -40.5q-29 0 -74 6q-57 8 -72 10q-43 4 -98 4q-70 0 -117 -6l-127 -16q-63 0 -104 43t-41 108z" />
<glyph unicode="N" horiz-adv-x="1789" d="M68.5 235q31.5 39 78.5 39q18 0 50 -7t49 -7q55 0 55 139v568q0 137 -55 137q-16 0 -48 -7t-51 -7q-47 0 -78.5 38.5t-31.5 96.5q0 68 41 108.5t106 40.5q43 0 125 -10t129 -10q39 0 133 8q43 2 99 8q25 4 53 4q55 0 86 -43q12 -16 45 -94l360 -877v607q0 137 -53 137 q-14 0 -41.5 -7t-42.5 -7q-43 0 -72.5 38.5t-29.5 96.5q0 68 39 108.5t102 40.5q33 0 113 -10t141 -10q55 0 129 8q111 12 137 12q66 0 107 -41t41 -108q0 -57 -33 -96t-80 -39q-18 0 -49 7t-47 7q-41 0 -53 -51q-4 -20 -4 -86v-834q0 -135 -111 -135q-20 0 -62 3t-63 3 q-2 0 -100 -4h-45q-59 0 -88 29q-16 16 -48 88l-395 901v-619q0 -139 53 -139q14 0 44 7t45 7q43 0 72.5 -38.5t29.5 -96.5q0 -149 -141 -149h-2q-41 0 -136 12q-63 8 -127 8q-53 0 -143 -10t-115 -10q-149 0 -149 147q0 59 31.5 98z" />
<glyph unicode="O" horiz-adv-x="1417" d="M61 686q0 334 169 525.5t466 191.5q311 0 485.5 -186.5t174.5 -520.5q0 -346 -169 -539.5t-474 -193.5q-311 0 -481.5 188.5t-170.5 534.5zM444 682q0 -207 52 -307q63 -125 213 -125q264 0 264 422q0 233 -62.5 338.5t-199.5 105.5q-266 0 -267 -434z" />
<glyph unicode="P" horiz-adv-x="1417" d="M37 139q0 57 31.5 96t78.5 39q18 0 51 -7t48 -7q55 0 55 139v568q0 66 -4 84q-10 53 -51 53q-16 0 -48 -7t-51 -7q-47 0 -78.5 38.5t-31.5 96.5q0 68 41 109.5t106 41.5h6q4 -2 9 -2q49 0 149.5 -10t151.5 -10q98 0 215 8q147 10 168 10q223 0 361 -126t138 -331 q0 -213 -142 -337.5t-388 -124.5q-20 0 -78 2l-57 2h-3q-52 0 -52 -62v-65q0 -70 61 -70q25 0 61 6q45 8 76 8q51 0 82 -36.5t31 -98.5q0 -68 -41 -108.5t-107 -40.5q-57 0 -169.5 10t-170.5 10q-88 0 -147 -6l-100 -10q-41 -4 -56 -4q-66 0 -105.5 41t-39.5 108zM662 803 q0 -57 10 -70.5t55 -15.5l33 -2q16 -1 30 -1q211 0 211 189q0 199 -217 199q-53 0 -73 -6q-37 -10 -45 -49q-4 -20 -4 -62v-182z" />
<glyph unicode="Q" horiz-adv-x="1417" d="M61 684q0 334 170 526.5t465 192.5q309 0 483.5 -189.5t174.5 -527.5q0 -297 -135 -483q-70 -96 -201 -168q25 -102 63 -103q23 0 31 9.5t27 56.5q25 63 98 63q57 0 92 -39.5t35 -105.5q0 -113 -84 -179.5t-225 -66.5q-178 0 -258 90q-39 43 -66 168q-2 10 -8 37h-23 q-295 0 -452 166q-186 197 -187 553zM442 678q0 -207 45 -303t154 -117q-6 39 -41 74q-53 53 -53 102q0 55 43.5 92t109.5 37q168 0 201 -217q45 74 60 158q10 55 10 170q0 231 -62.5 336.5t-199.5 105.5t-202 -105.5t-65 -332.5z" />
<glyph unicode="R" horiz-adv-x="1566" d="M68.5 235q31.5 39 78.5 39q18 0 51 -7t48 -7q55 0 55 139v568q0 66 -4 84q-10 53 -51 53q-16 0 -48 -7t-51 -7q-47 0 -78.5 38.5t-31.5 96.5q0 66 40 108.5t103 42.5q12 0 19 -2l145 -14q61 -6 131 -6q121 0 305 12q123 8 183 8q195 0 308 -97t113 -265q0 -154 -106 -226 q-59 -41 -186 -69q147 -25 208.5 -87.5t61.5 -185.5q0 -37 -2 -71v-25q0 -84 49 -84q12 0 38 5t38 5q45 0 72.5 -37.5t27.5 -99.5q0 -68 -40 -107.5t-105 -39.5q-23 0 -70 5t-70 5q-25 0 -72.5 -5t-72.5 -5q-76 0 -122 62.5t-46 164.5q0 10 2 14l4 119v15q0 106 -54 147 t-196 41q-57 0 -71 -31q-10 -20 -10 -76v-47q0 -139 51 -139q14 0 43.5 7t46.5 7q43 0 72.5 -38.5t29.5 -96.5q0 -149 -141 -149h-2q-49 0 -133 10t-146 10q-66 0 -151.5 -10t-145.5 -10q-149 0 -149 147q0 59 31.5 98zM662 881q0 -47 15 -61.5t58 -14.5q266 0 266 158 q0 139 -188 139q-82 0 -106 -10q-45 -20 -45 -88v-123z" />
<glyph unicode="S" horiz-adv-x="1267" d="M80 111q0 43 6 92q8 66 8 100q0 23 -5 70t-5 69q0 53 44 87t114 34q78 0 111.5 -33.5t47.5 -126.5q23 -153 231 -153h3q86 0 137 41t51 106q0 72 -45 101.5t-215 70.5l-135 33q-88 23 -164 80q-147 111 -147 297q0 188 125.5 306t326.5 118q213 0 336 -146 q2 72 27.5 98.5t89.5 26.5q131 0 131 -110q0 -31 -6 -90.5t-6 -89.5q0 -18 4 -53t4 -54v-10q0 -121 -139 -121q-117 0 -140 98l-10 43q-31 133 -217 133q-176 0 -176 -122q0 -63 38 -86t191 -54q258 -51 375 -153.5t117 -278.5q0 -207 -141.5 -339t-360.5 -132 q-182 0 -350 131q-6 -114 -121 -114h-2q-133 0 -133 131z" />
<glyph unicode="T" horiz-adv-x="1417" d="M37 907q0 27 8 97q6 53 6 98q0 25 -6 100q-4 51 -4 82q0 90 90 90q47 0 119 -6q164 -14 459 -14q297 0 460 14q72 6 117 6q92 0 92 -90q0 -31 -5 -91t-5 -91q0 -33 6 -98q8 -86 8 -99q0 -78 -42 -123t-111 -45q-154 0 -154 176q0 25 6 66t6 61q0 74 -90 74 q-59 0 -83.5 -30.5t-24.5 -106.5v-590q0 -127 69 -127q23 0 67 7t67 7q123 0 122 -122q0 -162 -153 -162q-59 0 -141 8q-123 12 -211 12q-90 0 -211 -12q-80 -8 -142 -8q-153 0 -153 147q0 137 125 137q23 0 66.5 -7t66.5 -7q70 0 69 127v590q0 137 -100 137t-100 -70 q0 -20 7 -62t7 -62q0 -182 -154 -183q-72 0 -112.5 46t-40.5 124z" />
<glyph unicode="U" horiz-adv-x="1714" d="M25 1223q0 70 44 110.5t115 40.5q45 0 135.5 -10t135.5 -10q39 0 115.5 10t115.5 10q61 0 98 -41t37 -110q0 -123 -84 -123h-20q-10 2 -27 2q-35 0 -41 -43v-72v-469q0 -141 48 -199.5t163 -58.5t167 60.5t52 197.5v469q0 76 -8 95.5t-37 19.5q-14 0 -24 -2h-21 q-84 0 -84 125q0 68 38 108.5t99 40.5q39 0 118 -10t118 -10q45 0 135 10t135 10q70 0 112 -41t42 -110q0 -59 -32 -96t-83 -37q-16 0 -46 7t-44 7q-59 0 -59 -117v-90l2 -180v-64q0 -229 -6 -274q-16 -156 -101 -244q-162 -172 -489 -172q-338 0 -479 178q-86 109 -86 322 q0 18 6 227q4 139 4 223v80q0 111 -60 111q-14 0 -44.5 -7t-49.5 -7q-47 0 -78.5 37.5t-31.5 95.5z" />
<glyph unicode="V" horiz-adv-x="1566" d="M-29 1225q0 149 148 149h2q41 0 125 -10t127 -10q61 0 139 10t109 10q135 0 135 -151q0 -121 -84 -121h-21q-6 2 -18 2q-37 0 -37 -35q0 -18 8 -47l184 -660l195 660q10 35 10 49q0 35 -32 33l-29 -2h-4q-94 0 -94 123q0 149 129 149h2q43 0 127 -10t127 -10q66 0 118 8 q80 12 117 12q63 0 102 -40t39 -103q0 -59 -29.5 -100t-72.5 -41q-14 0 -41 7t-35 7q-49 0 -106 -176l-250 -760q-55 -168 -162 -168q-20 0 -61 3t-62 3q-20 0 -59 -3t-60 -3q-109 0 -184 238l-244 766q-33 100 -73 100q-14 0 -38 -7t-46 -7q-45 0 -73 37.5t-28 97.5z" />
<glyph unicode="W" horiz-adv-x="2088" d="M-18 1229q0 63 40.5 104t102.5 41q35 0 103.5 -10t105.5 -10q33 0 129 12q63 8 98 8q137 0 137 -145q0 -131 -77 -131q-4 0 -13 2h-14q-20 4 -25 4q-35 0 -34 -39q0 -16 4 -37l131 -676l135 881q14 88 30.5 114.5t57.5 26.5q25 0 76 -5t75 -5q25 0 75 5t75 5q51 0 70 -47 q6 -16 18 -94l137 -881l129 676q6 23 6 39q0 37 -34 37q-6 0 -27 -4h-12q-8 -2 -13 -2q-78 0 -77 123q0 153 135 153h2q35 0 98 -8q96 -12 129 -12q4 0 164 18q27 2 45 2q61 0 101 -42t40 -105q0 -55 -29.5 -96t-70.5 -41q-23 0 -42 7t-34 7q-35 0 -51 -51q0 -2 -18 -80 l-187 -828q-20 -84 -31 -102q-23 -43 -83 -43q-23 0 -66 4q-20 2 -72 2q-43 0 -75 -2l-66 -4h-10q-53 0 -73.5 37t-41.5 168l-111 715l-112 -715q-20 -131 -41 -168t-74 -37q-18 0 -76 4q-29 2 -73 2q-23 0 -69 -3t-69 -3q-61 0 -84 43q-10 16 -30 102l-25 105l-164 723 q-8 39 -16 80q-18 51 -51 51q-16 0 -35 -6q-25 -8 -41 -8q-41 0 -71.5 40.5t-30.5 98.5z" />
<glyph unicode="X" horiz-adv-x="1564" d="M10 143q0 131 107 131q14 0 40.5 -4t39.5 -4q23 0 34 9.5t48 54.5l40 51l207 291l-204 313q-70 106 -136 107h-28q-12 -2 -35 -2q-113 0 -113 129q0 70 44 112.5t114 42.5q39 0 72 -4q133 -16 159 -16q39 0 115 10t115 10q57 0 93 -40t36 -103q0 -57 -35 -80l-33 -21 q-25 -14 -24 -34q0 -27 26 -76l101 -186l116 186q35 55 35 76q0 18 -26 34q-61 39 -62 99q0 66 35 105.5t92 39.5q37 0 110.5 -10t112.5 -10q37 0 108.5 10t106.5 10q55 0 94 -45t39 -110q0 -57 -30.5 -94.5t-79.5 -37.5q-4 0 -12 3h-15q-29 4 -35 4q-47 0 -125 -109 l-204 -283l204 -321l37 -49l31 -45q23 -18 49 -19q20 0 37 4q8 0 21 2h18q106 0 106 -131q0 -66 -40.5 -109.5t-104.5 -43.5q-18 0 -106 14q-37 6 -121 6q-88 0 -131 -6q-98 -14 -111 -14q-51 0 -82 38t-31 97q0 49 14.5 68.5t61.5 46.5q29 16 29 34q0 14 -25 58l-116 203 l-119 -181q-41 -61 -41 -84q0 -16 18 -28l39 -25q43 -27 43 -92q0 -135 -125 -135q-8 0 -143 16q-55 6 -98 6q-53 0 -101 -8q-80 -14 -108 -14q-66 0 -107 43t-41 110z" />
<glyph unicode="Y" horiz-adv-x="1527" d="M-33 1214q0 160 144 160q37 0 116.5 -10t122.5 -10q57 0 144 12q57 8 92 8q139 0 139 -153q0 -63 -47 -88q-29 -16 -41 -22.5t-12 -20.5v-7q0 -18 8 -32q2 -8 22 -47l111 -222l123 222q35 63 35 81q0 23 -41 45q-53 29 -54 99q0 145 148 145q47 0 90 -6q100 -14 135 -14 q37 0 107.5 10t105.5 10q66 0 106 -41t40 -110q0 -57 -30 -95t-75 -38q-18 0 -55 8q-27 6 -41 6q-29 0 -43 -14.5t-60 -85.5l-270 -433q-45 -74 -49 -159l-2 -58v-10q0 -84 65 -84q23 0 64 7t61 7q49 0 81 -38.5t32 -100.5q0 -68 -41 -106.5t-111 -38.5q-51 0 -155.5 10 t-157.5 10q-57 0 -169.5 -10t-170.5 -10q-68 0 -108.5 41t-40.5 106q0 137 116 137q20 0 62.5 -7t62.5 -7q59 0 60 94v58q0 63 -54 149l-303 498q-27 45 -69 45q-12 0 -39 -6q-35 -8 -55 -8q-98 0 -99 124z" />
<glyph unicode="Z" horiz-adv-x="1304" d="M27 131q0 45 43 117l32 55l654 825h-277q-59 0 -80.5 -17t-21.5 -62q0 -29 2 -45l4 -27q4 -35 4 -41q0 -59 -46 -101t-112 -42q-72 0 -113.5 40.5t-41.5 112.5q0 14 8 92q6 59 6 82q0 20 -6 94q-2 25 -2 70q0 55 35 74q25 12 86 14l90 2q10 0 141 -4q61 -2 215 -2h215 q39 0 117 4t117 4q131 0 131 -141q0 -72 -76 -166l-662 -819h304q88 0 108 4q57 16 57 76q0 23 -5 72t-5 73q2 68 43 110t111 42q68 0 108.5 -43t40.5 -115q0 -25 -6 -78q-8 -72 -8 -117q0 -27 7 -81t7 -80q0 -123 -151 -123h-10l-107 6q-35 2 -211 2h-215q-52 1 -93 1 q-82 0 -122 -3q-96 -6 -164 -6q-70 0 -110.5 39t-40.5 102z" />
<glyph unicode="[" horiz-adv-x="1304" d="M395 -203v1411q0 104 11 131q20 63 100 64q25 0 72 -5t67 -5l174 -4l166 4q18 0 64 4q27 2 65 2q147 0 148 -131q0 -66 -45.5 -105t-120.5 -39q-18 0 -105 9l-86 8q-86 8 -108 8q-39 0 -55.5 -15.5t-16.5 -74.5v-1110q0 -63 17.5 -77.5t54.5 -14.5q39 0 108 8l86 10 q51 6 105 6q76 0 121 -39t45 -104q0 -131 -148 -131q-14 0 -65 2q-25 2 -64 4l-82 4h-84l-174 -4q-20 0 -67.5 -4t-71.5 -4q-80 0 -100 61q-10 27 -11 131z" />
<glyph unicode="\" d="M55 1536h260l621 -1706h-260z" />
<glyph unicode="]" horiz-adv-x="1304" d="M43 -262q0 66 45 104.5t123 38.5q16 0 102 -8l86 -8q86 -8 109 -8q49 0 63 26q8 18 9 64v1112q0 59 -16.5 74.5t-57.5 15.5q-20 0 -107 -8q-150 -14 -188 -15q-76 0 -122 38t-46 104q0 131 143 131q25 0 71 -3t65 -3l79 -2q74 -2 84 0l174 4q51 2 91 4q57 4 49 4 q61 0 85.5 -30.5t24.5 -112.5v-1463q0 -102 -10 -131q-20 -61 -100 -61q-29 0 -49 2q-49 4 -91 6l-174 4l-163 -4q-23 -2 -66 -4q-33 -2 -70 -2q-143 0 -143 131z" />
<glyph unicode="^" d="M10 684l328 690h348l330 -690h-279l-225 477l-225 -477h-277z" />
<glyph unicode="_" d="M0 -94h1024v-240h-1024v240z" />
<glyph unicode="`" horiz-adv-x="1007" d="M180 1352q0 57 38 99t85 42q53 0 113 -33l190 -104q66 -37 76 -45q37 -29 37 -72q0 -45 -29.5 -82t-64.5 -37q-39 0 -125 33l-187 72q-133 51 -133 127z" />
<glyph unicode="a" horiz-adv-x="1193" d="M57 276q0 215 187 279q80 27 184 45q145 25 197.5 56.5t52.5 97.5q0 47 -40 78.5t-99 31.5q-68 0 -68 -43q0 -14 2 -28v-9q0 -57 -48 -96t-120 -39q-82 0 -135 49.5t-53 122.5q0 111 116.5 174.5t321.5 63.5q221 0 330 -68q117 -74 116 -274v-424q0 -66 33 -66q16 0 31 2 q6 2 14 2q47 0 80 -32.5t33 -79.5q0 -68 -60.5 -111t-154.5 -43q-168 0 -225 135q-143 -135 -340 -135q-162 0 -258.5 85t-96.5 226zM387 309q0 -94 111 -94q182 0 182 188v46q-14 -8 -180 -52q-113 -29 -113 -88z" />
<glyph unicode="b" horiz-adv-x="1230" d="M-41 1241q0 61 34 99t91 38q27 0 78 -6t78 -6q61 0 108 6t70 6h2q55 0 55 -71v-387q133 139 297 139q180 0 292 -146.5t112 -384.5q0 -256 -125 -409.5t-334 -153.5t-330 164q4 -33 4 -51q0 -94 -112 -94q-117 0 -117 118v934q0 104 -35 105q-14 0 -37 -8q-12 -4 -33 -5 q-98 0 -98 113zM479 514q1 -289 189 -289q178 0 178 287t-174 287q-84 0 -138.5 -81t-54.5 -204z" />
<glyph unicode="c" horiz-adv-x="1081" d="M55 512q0 252 147.5 399.5t397.5 147.5q180 0 298 -85t118 -216q0 -82 -53.5 -132.5t-137.5 -50.5q-70 0 -112.5 36.5t-42.5 93.5q0 31 20 61q-47 33 -104 33q-90 0 -146.5 -75t-56.5 -200q0 -129 59.5 -206.5t157.5 -77.5q100 0 148 108q29 68 49 86q29 25 90 25 q70 0 112.5 -42t42.5 -108q0 -139 -135 -241.5t-323 -102.5q-242 0 -385.5 148.5t-143.5 398.5z" />
<glyph unicode="d" horiz-adv-x="1304" d="M55 510q0 240 119.5 387t314.5 147q156 0 287 -120v147q0 74 -51 74q-12 0 -49 -4q-27 -8 -53 -8q-39 0 -66 32.5t-27 81.5q0 131 140 131q45 0 65 -2q82 -8 111 -8q27 0 78 4t75 4q51 0 71 -23.5t20 -86.5v-932q0 -104 38 -105q12 0 31 7q12 4 33 4q88 0 88 -105 q0 -63 -30.5 -103t-82.5 -40h-12l-72 12q-25 4 -69 4q-53 0 -88 -4q-51 -6 -56 -6q-63 0 -63 74v75q-106 -182 -320 -182q-188 0 -310 154.5t-122 390.5zM383 494q0 -125 48 -197t130 -72q90 0 146.5 78t56.5 207q0 125 -55.5 200.5t-147.5 75.5q-76 0 -124 -71.5 t-54 -194.5v-26z" />
<glyph unicode="e" horiz-adv-x="1118" d="M55 506q0 248 144.5 400.5t378.5 152.5q217 0 347 -125t130 -334q0 -86 -21.5 -114.5t-85.5 -28.5h-499q-37 0 -46.5 -7.5t-9.5 -35.5q0 -86 55.5 -143.5t139.5 -57.5q86 0 176 94q61 66 135 66q61 0 99 -35t38 -88q0 -119 -130 -202t-316 -83q-244 0 -389.5 147.5 t-145.5 393.5zM403 702q0 -12 6.5 -20t43.5 -8h229q31 0 38 7t7 26q0 53 -47 93t-111 40q-82 0 -133 -64q-33 -41 -33 -74z" />
<glyph unicode="f" horiz-adv-x="821" d="M35 129q0 115 100 115q16 0 37 -7.5t29 -7.5q37 0 37 115v408q0 43 -19 49q-8 4 -26 4h-50q-109 0 -108 106q0 119 112 119h37q35 0 45.5 11.5t12.5 54.5q6 141 111.5 223t281.5 82q147 0 236.5 -59.5t89.5 -157.5q0 -61 -45.5 -102.5t-112.5 -41.5q-55 0 -91 30t-36 75 q0 23 16 53q-18 8 -41 8q-100 0 -100 -96v-41q0 -39 45 -39h61q119 0 119 -110q0 -115 -112 -115h-68q-45 0 -45 -53v-412q0 -66 2 -72q6 -43 43 -43q8 0 37 4q23 6 47 7q96 0 96 -113q0 -57 -34.5 -94t-88.5 -37q-4 0 -125 12q-41 4 -118 4q-86 0 -140 -6q-88 -10 -108 -10 q-57 0 -92 38t-35 99z" />
<glyph unicode="g" horiz-adv-x="1155" d="M29 -86q0 164 207 227q-164 33 -164 187q0 80 35.5 126t128.5 87q-74 82 -74 180q0 143 124 240.5t306 97.5l78 -4q2 104 69.5 162.5t186.5 58.5q96 0 160.5 -49t64.5 -125q0 -51 -34 -86t-85 -35q-57 0 -84 43l-20 33q-8 14 -27 14q-43 0 -43 -59q0 -14 2 -21 q197 -70 197 -278q0 -158 -122 -254.5t-321 -96.5q-106 0 -219 48l-10 4q-31 -25 -31 -54q0 -70 99 -86q33 -6 149 -6h23l131 2h10q190 0 293 -76q106 -77 106 -221q0 -182 -159.5 -287.5t-434.5 -105.5q-246 0 -394 91t-148 243zM352 -57q0 -109 242 -109q244 0 244 109 q0 88 -160 88q-6 0 -55 -2h-56q-49 0 -123 8q-92 -37 -92 -94zM475 711q0 -57 38 -96.5t95 -39.5t95 39t38 95q0 57 -38 96t-95 39t-95 -38t-38 -95z" />
<glyph unicode="h" horiz-adv-x="1341" d="M14 127q0 117 101 117q12 0 33.5 -7.5t33.5 -7.5q35 0 35 115v682q0 115 -35 115q-14 0 -37 -8q-12 -4 -32 -5q-98 0 -99 113q0 61 35 99t90 38q27 0 78 -6t78 -6q63 0 109.5 6t70.5 6h1q54 0 54 -71v-375q88 76 147.5 101.5t147.5 25.5q190 0 271 -119q53 -80 53 -254 v-352q0 -102 41 -103q16 0 28.5 4.5t32.5 4.5q90 0 90 -105q0 -143 -120 -143q-35 0 -102.5 8t-102.5 8q-33 0 -97.5 -8t-97.5 -8q-51 0 -82.5 34.5t-31.5 92.5q0 104 77 110q35 2 43.5 18.5t8.5 55.5v313q0 170 -129 170q-176 0 -177 -243v-242q0 -43 9.5 -54t50.5 -18 q63 -10 63 -102q0 -135 -112 -135q-25 0 -88.5 8t-116.5 8q-43 0 -92 -6q-82 -10 -105 -10q-55 0 -90 38t-35 97z" />
<glyph unicode="i" horiz-adv-x="745" d="M35 127q0 117 98 117l53 -13q8 -2 15 -2q37 0 37 115v332q0 117 -35 117q-6 0 -37 -11q-20 -4 -33 -4q-98 0 -98 115q0 61 34.5 99t92.5 38q23 0 65 -6q72 -10 115 -10q35 0 90.5 8t61.5 8q57 0 57 -80v-616q0 -104 39 -105q8 0 29.5 5.5t35.5 5.5q86 0 86 -107 q0 -141 -120 -141q-20 0 -115 10q-57 6 -131 6q-37 0 -108.5 -8t-106.5 -8q-55 0 -90 38t-35 97zM190 1294q0 78 54.5 132.5t132.5 54.5t132 -54.5t54 -132.5t-54 -132t-132 -54q-76 0 -131.5 55.5t-55.5 130.5z" />
<glyph unicode="j" horiz-adv-x="671" d="M-250 -203q0 72 51.5 121t126.5 49q63 0 105.5 -36t42.5 -89q0 -29 -15 -53q16 -4 37 -4q70 0 97.5 61.5t27.5 219.5v610q0 117 -37 117q-12 0 -39.5 -7.5t-37.5 -7.5q-88 0 -89 115q0 137 121 137q31 0 89.5 -8t88.5 -8q31 0 92.5 8t67.5 8q57 0 58 -80v-938 q0 -115 -20.5 -179t-78.5 -126q-125 -135 -344 -135q-152 0 -248 62.5t-96 162.5zM168 1294q0 78 55.5 132.5t132.5 54.5q78 0 132.5 -54.5t54.5 -132.5q0 -76 -54.5 -131t-132.5 -55t-133 54.5t-55 131.5z" />
<glyph unicode="k" horiz-adv-x="1380" d="M14 127q0 117 101 117q-2 0 51 -13q8 -2 14 -2q37 0 37 115v682q0 115 -35 115q-14 0 -37 -8q-12 -4 -32 -5q-98 0 -99 113q0 137 131 137q33 0 60 -4q66 -10 102 -10q29 0 90 8q47 6 68 6q65 0 65 -78v-696l97 84q12 10 47 41q55 47 55 74q0 16 -18 33l-33 30 q-27 25 -27 70q0 94 107 94q37 0 112.5 -8t114.5 -8q59 0 147.5 8t92.5 8q121 0 121 -123q0 -119 -95 -119q-18 0 -44.5 6.5t-41.5 6.5q-29 0 -90 -45l-86 -64q-53 -39 -53 -61q0 -10 8 -23l19 -26l159 -252q66 -104 105 -105q12 0 33 6q43 6 43 7q92 0 92 -117 q0 -129 -121 -129q-33 0 -98.5 8t-98.5 8q-55 0 -108.5 -8t-77.5 -8q-41 0 -72 32.5t-31 77.5q0 25 25 72q14 20 14 39q0 25 -45 88l-67 94q-39 53 -47 54q-20 0 -64 -39l-74 -68v-41q0 -78 33 -78q12 0 35 6.5t37 6.5q84 0 84 -99q0 -145 -117 -145q-29 0 -88 8t-174 8 q-63 0 -107 -6q-70 -10 -94 -10q-55 0 -90 38t-35 97z" />
<glyph unicode="l" horiz-adv-x="745" d="M14 129q0 115 101 115q12 0 33.5 -7.5t33.5 -7.5q35 0 35 115v682q0 115 -35 115q-14 0 -37 -8q-12 -4 -32 -5q-98 0 -99 113q0 63 35 100t94 37q16 0 70 -6q70 -8 104 -8q47 0 82 8q47 6 74 6q57 0 57 -75v-969q0 -102 41 -103q16 0 28.5 4.5t33.5 4.5q90 0 90 -107 q0 -141 -123 -141q-2 0 -156 12q-47 4 -100 4q-45 0 -96 -6q-86 -10 -109 -10q-55 0 -90 38t-35 99z" />
<glyph unicode="m" horiz-adv-x="1976" d="M31 127q0 117 98 117q16 0 36.5 -7.5t31.5 -7.5q34 0 34 109v6v332q0 117 -34 117q-8 0 -32 -7.5t-36 -7.5q-98 0 -98 115q0 59 33.5 98t89.5 39q12 0 67 -10q33 -6 62 -6q25 0 72.5 8t72.5 8q53 0 53 -61v-95q154 184 342 185q158 0 260 -154q102 88 175 121t169 33 q195 0 291 -129q66 -88 66 -283v-313q0 -104 39 -105q12 0 32 7q10 4 31 4q90 0 90 -107q0 -63 -32.5 -102t-85.5 -39q-6 0 -60 6l-45 6q-33 4 -86 4q-66 0 -127 -8t-86 -8q-49 0 -81 38t-32 95q0 94 76 108q39 6 46 22.5t7 90.5v211q0 131 -27.5 179t-105.5 48 q-174 0 -174 -247v-191q0 -70 6.5 -88t32.5 -25q63 -14 64 -102q0 -139 -115 -139q-23 0 -64 6q-68 10 -90 10q-25 0 -72.5 -8t-72.5 -8q-100 0 -100 129q0 92 63 108q35 8 37 50q2 55 2 67v232q0 117 -27.5 161.5t-99.5 44.5q-180 0 -180 -247v-248q0 -33 8 -42t41 -16 q80 -14 80 -106q0 -133 -113 -133q-35 0 -103.5 8t-103.5 8q-47 0 -96 -6q-82 -10 -104 -10q-57 0 -91 38t-34 97z" />
<glyph unicode="n" horiz-adv-x="1380" d="M31 129q0 115 98 115q16 0 36.5 -7.5t31.5 -7.5q34 0 34 109v6v332q0 117 -34 117q-8 0 -32 -7.5t-36 -7.5q-98 0 -98 113q0 61 33.5 100t89.5 39q16 0 69 -10q31 -6 53 -6q25 0 84.5 8t65.5 8q55 0 55 -57v-99q158 184 357 185q213 0 301 -160q47 -82 47 -258v-307 q0 -104 41 -105q10 0 30 7q10 4 31 4q90 0 90 -107q0 -141 -123 -141q-33 0 -98 8t-98 8q-51 0 -108.5 -8t-94.5 -8q-121 0 -121 125q0 109 84 114q55 4 55 52v286q0 119 -30.5 167t-104.5 48q-84 0 -138 -57t-54 -145v-213q0 -92 8 -111.5t47 -26.5q74 -10 74 -110 q0 -129 -109 -129q-31 0 -75 6q-76 10 -113 10t-109.5 -8t-109.5 -8q-129 0 -129 137z" />
<glyph unicode="o" horiz-adv-x="1155" d="M55 512q0 258 137.5 402.5t385.5 144.5q244 0 384 -143.5t140 -393.5q0 -262 -136 -409.5t-380 -147.5q-254 0 -392.5 143.5t-138.5 403.5zM383 512q0 -139 52 -217t147 -78q190 0 190 298q0 292 -194 292q-90 0 -142.5 -79t-52.5 -216z" />
<glyph unicode="p" horiz-adv-x="1230" d="M-12 -219q0 115 100 115q16 0 31 -7q37 -8 35 -8q36 0 36 111v6v678q0 117 -34 117q-6 0 -37 -11q-20 -4 -33 -4q-98 0 -98 115q0 59 32.5 98t83.5 39h15l71 -10q14 -4 60 -4q59 0 110 8q27 4 39 4q52 0 52 -72v-61q127 164 317 164q186 0 297 -144.5t111 -388.5 q0 -252 -113 -399t-303 -147q-76 0 -137 28q-39 18 -119 78v-158q0 -63 49 -63q20 0 47 6q37 4 53 4q94 0 95 -106q0 -123 -127 -123q-37 0 -113 8q-94 10 -186 10q-39 0 -175 -16q-25 -2 -36 -2q-53 0 -88 37.5t-35 97.5zM508 520q0 -129 45 -204.5t121 -75.5 q78 0 125 75.5t47 204.5q0 127 -46 203t-122 76q-80 0 -125 -74t-45 -205z" />
<glyph unicode="q" horiz-adv-x="1191" d="M55 514q0 252 110.5 398.5t303.5 146.5q182 0 295 -144v58q0 82 139 82q156 0 156 -103v-970q0 -94 43 -95q12 0 39 7q8 2 26 2q84 0 84 -105q0 -145 -121 -145q-39 0 -115.5 9t-115.5 9q-49 0 -145.5 -9t-143.5 -9q-110 0 -110 119q0 108 104 108q16 0 47 -3t47 -3 q33 0 43 24q4 12 4 56v157q-110 -124 -266 -124h-2q-188 0 -305 148t-117 386zM383 522q0 -125 49 -203.5t127 -78.5q84 0 133 75.5t49 202.5q0 131 -47 206t-129 75q-84 0 -133 -76t-49 -201z" />
<glyph unicode="r" horiz-adv-x="1044" d="M31 129q0 115 98 115q16 0 36.5 -7.5t31.5 -7.5q34 0 34 109v6v332q0 117 -34 117q-8 0 -32 -7.5t-36 -7.5q-98 0 -98 113q0 61 32.5 100t83.5 39q20 0 57.5 -8t69.5 -8q25 0 72 8t70 8q63 0 63 -63v-174q29 104 68 153q90 113 252 113q113 0 189.5 -73t76.5 -179 q0 -84 -49 -138.5t-125 -54.5q-57 0 -97 37t-40 90q0 29 26 80h-12q-137 0 -184 -145q-37 -117 -37 -268v-78q0 -74 12 -94q8 -12 29 -13q18 0 51 8.5t49 8.5q45 0 77 -32t32 -77q0 -59 -40 -99t-98 -40q-31 0 -114 10q-51 6 -129 6t-137 -6q-98 -10 -121 -10 q-127 0 -127 137z" />
<glyph unicode="s" horiz-adv-x="1044" d="M39 70q0 20 4 63t4 64q0 18 -3 55t-3 55q0 92 115 92q55 0 83.5 -16t61.5 -64q51 -76 94 -99t127 -23q147 0 148 92q0 63 -119 88l-119 24q-145 31 -205.5 62t-95.5 97.5t-35 152.5q0 154 101.5 250t265.5 96q158 0 266 -88q8 86 111 86q104 0 104 -74q0 -25 -8 -55 q-6 -37 -6 -70q0 -6 2 -33v-47v-8q0 -108 -107 -108h-2q-78 0 -135 77q-70 94 -170 95q-119 0 -119 -82q0 -43 39 -60.5t205 -46.5q135 -25 199.5 -55.5t105.5 -87.5q51 -74 51 -172q0 -156 -119.5 -260.5t-299.5 -104.5t-328 115q0 -100 -102 -100q-111 0 -111 90z" />
<glyph unicode="t" horiz-adv-x="894" d="M4 915q0 47 25.5 81t60.5 34h39q49 0 57 29q6 16 7 55v100q0 72 37.5 98.5t138.5 26.5q72 0 97.5 -20.5t25.5 -89.5v-111q0 -59 11 -73.5t58 -14.5h148q120 0 120 -110q0 -111 -110 -111h-168q-43 0 -51 -14t-8 -45v-84l-3 -127l-4 -138q-2 -68 -2 -55q0 -121 78 -121 q74 0 74 109q0 16 -2 24v27q-2 14 -2 21q0 110 108 110h2q129 0 129 -207q0 -162 -96 -253t-268 -91q-338 0 -338 357q0 57 5 171.5t5 172.5v65q0 51 -9 64.5t-44 13.5h-33q-39 0 -63.5 29.5t-24.5 76.5z" />
<glyph unicode="u" horiz-adv-x="1304" d="M0 893q0 137 125 137q25 0 76 -8t75 -8q25 0 74 8t74 8q61 0 61 -86l4 -545q6 -159 126 -159h1q184 0 185 256v190q0 104 -47 105q-12 0 -32 -5.5t-32 -5.5q-76 0 -76 109q0 141 115 141q29 0 84 -8t82 -8q8 0 88 10q47 6 68 6q66 0 65 -74v-622q0 -102 39 -103 q16 0 28.5 4.5t35.5 4.5q88 0 88 -107q0 -141 -121 -141q-25 0 -73 8t-73 8q-23 0 -66.5 -8t-66.5 -8h-2q-57 0 -57 65v80q-135 -172 -359 -172q-94 0 -171.5 41t-111.5 109.5t-34 253.5v317q0 72 -9 84t-30 12h-20q-6 -2 -21 -2q-92 0 -92 113z" />
<glyph unicode="v" horiz-adv-x="1341" d="M-18 893q0 137 124 137q31 0 93.5 -8t93.5 -8q43 0 147 10q63 6 95 6q110 0 110 -115q0 -108 -82 -116q-51 -6 -51 -41q0 -10 20 -76l142 -451l151 451q6 16 17 45q6 23 6 33q0 29 -53 39q-78 16 -78 114q0 117 110 117q37 0 110 -8t110 -8q57 0 112 8t80 8 q121 0 121 -129q0 -123 -105 -123q-4 0 -10 2h-10q-14 4 -27 4q-35 0 -57 -63q-8 -23 -41 -107l-176 -458q-60 -160 -171 -160h-11l-97 6l-96 -6h-8q-96 0 -141 123l-213 575q-25 61 -35 74.5t-31 13.5h-10q-6 -2 -10 -2q-16 -4 -35 -4q-41 0 -67.5 33t-26.5 84z" />
<glyph unicode="w" horiz-adv-x="1826" d="M-20 897q0 133 120 133q33 0 97.5 -8t97.5 -8q35 0 106.5 8t106.5 8q110 0 110 -121q0 -106 -79 -112q-39 -4 -48.5 -9.5t-9.5 -25.5v-19q0 -8 4 -28l88 -439l132 605q20 90 60 119.5t146 29.5q121 0 159 -29.5t60 -144.5l117 -580l109 459q4 16 4 29q0 31 -49 31 q-100 2 -101 114q0 121 117 121q35 0 102.5 -8t102.5 -8q33 0 98.5 8t98.5 8q53 0 85.5 -34.5t32.5 -92.5q0 -53 -26.5 -87t-67.5 -34q-14 0 -20 2q-29 4 -31 4q-27 0 -47 -73q0 -2 -19 -58l-170 -532q-41 -131 -108 -131q-20 0 -61.5 6t-61.5 6t-59 -6t-58 -6 q-76 0 -106 160l-101 538l-118 -522q-27 -117 -44.5 -146.5t-60.5 -29.5q-23 0 -61.5 6t-67.5 6q-23 0 -65.5 -6t-65.5 -6q-63 0 -92 104l-164 623q-14 63 -55 63q-8 0 -25.5 -3t-25.5 -3q-86 0 -86 119z" />
<glyph unicode="x" horiz-adv-x="1341" d="M0 123q0 51 27.5 84t72.5 33q12 0 37 -4.5t37 -4.5q31 0 72 52l41 51l135 190l-154 201q-49 66 -88 66q-10 0 -33.5 -4.5t-33.5 -4.5q-39 0 -66 32t-27 79q0 59 34 98t87 39q31 0 93.5 -8t95.5 -8q31 0 119 10q53 6 81 6q119 0 119 -112q0 -41 -39 -76q-18 -16 -18 -31 q0 -23 31 -72l63 -100l72 100q25 35 24 58q0 16 -26 30q-47 25 -47 80q0 123 114 123q29 0 76 -6q78 -10 100 -10q18 0 92 8t93 8q53 0 87 -33.5t34 -89.5q0 -47 -28 -84t-60 -37q-10 0 -33 3.5t-33 3.5q-29 0 -53 -33l-27 -35l-137 -188l170 -246q39 -55 67 -55q10 0 29 4 t29 4q45 0 72.5 -33t27.5 -86q0 -131 -133 -131q-25 0 -72 6q-78 10 -116 10q-33 0 -95.5 -8t-95.5 -8q-51 0 -86 34.5t-35 86.5q0 39 39 67.5t39 44.5q0 23 -37 76l-63 90l-82 -114q-29 -41 -29 -58q0 -20 39 -39.5t39 -66.5q0 -119 -127 -119q-29 0 -87 5t-87 5 q-20 0 -147 -10q-39 -4 -68 -4q-125 0 -125 131z" />
<glyph unicode="y" horiz-adv-x="1267" d="M-47 -180q0 76 48 124t122 48q63 0 102 -38t39 -97q0 -23 -4 -45q27 -12 51 -13q55 0 105.5 65.5t50.5 110.5q0 41 -70 207l-229 543q-25 57 -49 57q-2 0 -31 -4h-8q-6 -2 -10 -2q-104 0 -105 117q0 57 36 97t89 40q33 0 97.5 -8t97.5 -8q39 0 131 8t98 8q113 0 113 -119 q0 -84 -86 -98q-43 -6 -43 -37q0 -16 12 -55l139 -440l139 421q16 49 17 74q0 23 -33 35l-37 14q-43 16 -43 86q0 51 30 85t75 34q31 0 94 -8t94 -8q33 0 98.5 8t98.5 8q123 0 123 -133q0 -47 -28 -83t-67 -36q-8 0 -27.5 4t-27.5 4q-37 0 -59 -61l-27 -72l-176 -458 q-82 -213 -113.5 -276.5t-91.5 -139.5q-164 -207 -401 -207q-145 0 -239.5 69.5t-94.5 178.5z" />
<glyph unicode="z" horiz-adv-x="1118" d="M41 119q0 62 51 117l508 550h-209q-78 0 -78 -38q0 -8 6 -46q0 -4 3 -10v-10q0 -51 -37 -85t-92 -34q-117 0 -117 125q0 18 4 70q3 30 3 52q0 11 -1 19l-8 103v12q0 86 102 86h23l235 -6q72 -2 158 -2q121 0 270 6h21q151 0 151 -139q0 -72 -47 -123l-39 -43l-452 -487 h139q80 0 102 4q66 12 66 61v-2l-4 63v13q0 114 119 114h2q123 0 122 -137v-35q-12 -123 -12 -129q0 -20 4 -58t4 -58q0 -45 -24.5 -61.5t-91.5 -16.5h-27l-98 4l-150 4q-150 4 -201 4q-45 0 -135 -6t-135 -6q-61 0 -98 33.5t-37 91.5z" />
<glyph unicode="{" d="M244 389v225q92 18 104 93l8 47v331q0 162 71 229.5t241 67.5h12q8 -2 12 -2l133 -4v-233h-41q-92 0 -116 -13q-45 -23 -45 -104v-276q0 -104 -25 -155.5t-98 -102.5q70 -45 96.5 -101.5t26.5 -159.5v-276q0 -82 45 -105q25 -12 116 -12q20 0 41 2v-235l-133 -4h-24 q-168 0 -240 67.5t-72 227.5v317q0 154 -112 176z" />
<glyph unicode="|" d="M379 -512v2048h266v-2048h-266z" />
<glyph unicode="}" d="M244 -160q23 -2 43 -2q92 0 116 12q45 23 46 105v276q0 104 24.5 155.5t97.5 105.5q-70 45 -96 100t-26 158v276q0 84 -46 104q-25 12 -118 13h-41v233l135 4q4 0 12 2h12q168 0 240 -68.5t72 -228.5v-315q0 -78 18 -115q27 -49 92 -61v-225q-94 -23 -104 -95l-6 -47 v-331q0 -160 -72 -227.5t-240 -67.5q-25 0 -24 0l-135 4v235z" />
<glyph unicode="~" horiz-adv-x="1366" d="M184 1243q6 12 17 35q61 141 124.5 195.5t170.5 54.5q68 0 211 -53q127 -47 178 -48q86 0 145 105l152 -88q-55 -113 -93 -162t-100.5 -81t-132.5 -32q-47 0 -211 58q-129 45 -166 45q-51 0 -79.5 -24.5t-69.5 -100.5z" />
<glyph unicode="&#xa1;" horiz-adv-x="894" d="M242 -240q0 18 6 82l63 658q10 102 97 102h79q86 0 97 -102l63 -658q4 -43 4 -82q0 -139 -205 -139t-204 139zM256 864q0 80 56.5 137.5t136.5 57.5q82 0 138 -57.5t56 -137.5q0 -82 -56.5 -138t-137.5 -56q-80 0 -136.5 56t-56.5 138z" />
<glyph unicode="&#xa2;" horiz-adv-x="1341" d="M238 702q0 260 170 388q74 55 198 77v90q0 98 29 113q16 8 47 8q63 0 74 -39q6 -20 6 -65v-96q317 -37 317 -263q0 -82 -45 -132t-119 -50q-57 0 -99 32t-42 77q0 29 25 61q-37 33 -80 33q-76 0 -126 -66.5t-50 -162.5q0 -100 48 -166t124 -66q68 0 108 74q31 57 51 76 q29 25 82 24q145 0 146 -125q0 -119 -94.5 -202.5t-245.5 -102.5v-141q0 -68 -82 -68q-76 0 -76 70v6q0 20 2 45v98q-174 25 -271 150t-97 323z" />
<glyph unicode="&#xa3;" horiz-adv-x="1640" d="M2 258q0 119 96.5 203t231.5 84q139 0 309 -68q-4 70 -78 187q-43 0 -123 -5l-82 -6q-55 -4 -71 -4q-98 0 -99 88q0 88 86 88q47 0 71 -2t87 -6l45 -2q-63 127 -63 221q0 156 136 261.5t337 105.5q176 0 287.5 -81t111.5 -206q0 -84 -52 -138t-132 -54q-70 0 -111 37.5 t-41 101.5q0 33 15 63q-47 25 -86 25q-53 0 -91 -35t-38 -84q0 -66 83 -221l39 2l150 4l110 6q37 2 48 2q68 0 92 -18.5t24 -67.5q0 -90 -96 -90q-2 0 -57 4q-113 8 -189 9h-45q66 -109 66 -209q0 -51 -21 -109q186 -109 332 -108q43 0 72.5 19t29.5 48q0 31 -26 31 q-12 0 -31 -8q-37 -10 -61 -11q-49 0 -82 35t-33 86q0 72 53.5 116t141.5 44q125 0 208.5 -84t83.5 -207q0 -143 -113.5 -242.5t-277.5 -99.5q-133 0 -395 131l-37 19q-68 -59 -115 -84q-119 -66 -290 -66q-176 0 -293 84t-117 211zM297 262q0 -65 96 -65q82 0 162 71 q-92 53 -162 54q-96 0 -96 -60z" />
<glyph unicode="&#xa4;" horiz-adv-x="1366" d="M39 1268l145 145l213 -213q139 90 287 90q145 0 281 -88l211 209l143 -143l-209 -209q94 -147 94 -287q0 -141 -90 -278l211 -211l-141 -146l-211 211q-137 -92 -291 -92q-143 0 -287 90l-211 -209l-143 144l211 211q-90 137 -90 282q0 143 92 281zM406 772 q0 -115 81.5 -196.5t196.5 -81.5t196 81.5t81 196.5q0 117 -81 199t-196 82q-117 0 -197.5 -82t-80.5 -199z" />
<glyph unicode="&#xa5;" horiz-adv-x="1566" d="M6 1214q0 160 144 160q31 0 100 -10t133 -10q61 0 135 12q49 8 92 8q63 0 101.5 -42t38.5 -111q0 -57 -50 -88q-14 -10 -41 -27q-14 -10 -14 -25q0 -16 27 -77l108 -254l138 290q14 27 14 47t-45 43q-55 27 -56 97q0 147 148 147q47 0 90 -6q98 -14 127 -14q41 0 119 12 q51 8 88 8q66 0 105.5 -41t39.5 -110q0 -57 -29.5 -95t-74.5 -38q-18 0 -55 8q-27 6 -39 6q-39 0 -72 -47q-10 -16 -33 -53l-78 -125h162q84 0 84 -78q0 -76 -76 -76h-260l-67 -125h331q84 0 84 -80q0 -76 -77 -76h-398l-2 -90q-2 -94 66 -94q23 0 63.5 7t61.5 7 q51 0 81.5 -38.5t30.5 -100.5q0 -68 -41 -106.5t-110 -38.5q-51 0 -155.5 10t-158.5 10q-57 0 -169.5 -10t-170.5 -10q-66 0 -107.5 41t-41.5 106q0 137 117 137q23 0 64.5 -7t62.5 -7q57 0 57 94v90h-356q-51 0 -74 13.5t-23 58.5q0 84 88 84h295l-67 125h-221 q-51 0 -70 10q-27 16 -27 62q0 82 86 82h146l-64 102l-45 78q-27 45 -69 45q-12 0 -39 -6q-35 -8 -56 -8q-96 0 -96 124z" />
<glyph unicode="&#xa6;" d="M379 307h266v-819h-266v819zM379 717v819h266v-819h-266z" />
<glyph unicode="&#xa7;" horiz-adv-x="1341" d="M186 532q0 78 33 135.5t121 133.5q-80 109 -80 223q0 170 117 274.5t309 104.5q174 0 294 -83t120 -204q0 -76 -47 -124t-121 -48q-63 0 -107.5 37t-44.5 90q0 37 27 78q-53 27 -100 27q-143 0 -144 -105q0 -41 25.5 -59.5t146.5 -63.5q168 -61 244 -102 q178 -96 178 -271q0 -139 -147 -247q96 -102 96 -242q0 -172 -126 -281.5t-327 -109.5q-176 0 -301 87t-125 208q0 70 51.5 120t122.5 50q66 0 106 -34t40 -87q0 -37 -23 -74q61 -37 131 -37q63 0 104.5 31t41.5 78q0 63 -94 96l-203 72q-145 51 -193.5 84t-86.5 102 t-38 141zM479 604q0 -41 25.5 -63.5t99.5 -48.5l195 -70q57 23 57 82q0 72 -145 125l-179 65q-53 -41 -53 -90z" />
<glyph unicode="&#xa8;" horiz-adv-x="1007" d="M115 1303q0 72 52 124t126 52t125 -51.5t51 -124.5q0 -74 -52 -125.5t-124 -51.5q-74 0 -126 52.5t-52 124.5zM537 1303q0 72 52 124t126 52t125 -51.5t51 -124.5q0 -72 -52 -124.5t-124 -52.5q-74 0 -126 51.5t-52 125.5z" />
<glyph unicode="&#xa9;" horiz-adv-x="1548" d="M55 682q0 299 211 510t508 211t508 -211t211 -510q0 -297 -210 -508t-509 -211q-297 0 -508 211t-211 508zM209 682q0 -240 166 -410t399 -170q236 0 400.5 170t164.5 410q0 242 -164.5 411t-400.5 169t-400.5 -170t-164.5 -410zM391 686q0 188 98.5 300t266.5 112 q117 0 211 -82v10q0 66 75 66q82 0 82 -74q0 -18 -5 -56t-5 -57q0 -33 4 -49q4 -41 4 -45q0 -80 -104 -80q-98 0 -94 76l2 39q0 37 -37 61.5t-90 24.5q-170 0 -170 -250t174 -250q55 0 92 24.5t35 63.5l-2 43q-2 37 24.5 59.5t69.5 22.5q117 0 117 -125q0 -113 -96.5 -182.5 t-249.5 -69.5q-190 0 -296 109.5t-106 308.5z" />
<glyph unicode="&#xaa;" horiz-adv-x="894" d="M98 608v68h697v-68h-697zM100 969q0 76 49.5 112.5t178.5 55.5q88 12 119.5 29.5t31.5 52.5q0 59 -84 59q-41 0 -41 -25v-18q0 -72 -102 -72q-47 0 -81 25.5t-34 64.5q0 127 266 127q147 0 210 -42t63 -138v-225q0 -35 20 -35q10 0 21 2h8q68 0 68 -59q0 -35 -37 -58.5 t-94 -23.5q-100 0 -138 71q-88 -72 -209 -71q-98 0 -156.5 46t-58.5 122zM301 983q0 -51 70 -51q110 0 110 102v23q-29 -14 -90 -25q-90 -14 -90 -49z" />
<glyph unicode="&#xab;" horiz-adv-x="1118" d="M45 522q0 41 41 80l209 203q84 82 127 82q33 0 56.5 -24.5t23.5 -59.5q0 -42 -45 -103l-109 -147q-16 -23 -16 -37q0 -10 16 -27l17 -20l86 -94q78 -86 77 -125q0 -76 -82 -76q-57 0 -143 76l-164 143q-94 82 -94 129zM532 522q0 39 43 80l209 203q84 82 127 82 q31 0 54.5 -25.5t23.5 -58.5q0 -46 -43 -103l-108 -147q-16 -23 -17 -37q0 -10 15 -27l18 -20l86 -94q78 -86 78 -125q0 -76 -84 -76q-57 0 -143 76l-162 143q-96 86 -97 129z" />
<glyph unicode="&#xac;" d="M68 307v240h888v-547h-266v307h-622z" />
<glyph unicode="&#xad;" horiz-adv-x="1124" d="M94 420v127h936v-127h-936z" />
<glyph unicode="&#xae;" d="M102 1147q0 170 120 289.5t290 119.5t290 -119.5t120 -289.5q0 -168 -120 -289t-290 -121q-168 0 -289 121t-121 289zM156 1147q0 -147 104.5 -251.5t251.5 -104.5t251.5 104t104.5 252q0 147 -104.5 251.5t-251.5 104.5t-251.5 -104.5t-104.5 -251.5zM283 991 q0 41 32 41q6 0 16.5 -2t16.5 -2q14 0 14 43v172q0 43 -16 43h-6q-4 -2 -9 -3t-16 -1q-33 0 -32 41q0 45 43 45h6l45 -4q10 -2 39 -2q39 0 94 4q29 2 55 2q129 1 129 -108q0 -70 -90 -93q84 -14 84 -86v-8q-2 -6 -2 -10v-8q0 -25 14 -25h13q4 2 12 2q31 0 31 -41 q0 -45 -45 -45h-21q-10 2 -22 2q-14 0 -25 -2h-20q-49 0 -50 68v6l2 39q0 59 -77 59q-25 0 -25 -33v-14q0 -43 16 -43q4 0 15 2q4 2 14 2q29 0 29 -41q0 -45 -43 -45q-25 0 -41 2q-35 4 -45 4q-8 0 -45 -4q-18 -2 -43 -2q-47 0 -47 45zM473 1219q0 -25 25 -25q80 0 80 49 q-1 43 -60 43q-31 0 -38 -7t-7 -24v-36z" />
<glyph unicode="&#xaf;" horiz-adv-x="1007" d="M115 1303q0 113 112 116q47 0 144 -4q115 -4 147 -4q41 0 121 4t121 4q133 0 133 -116q0 -119 -127 -119q-43 0 -131 5t-131 5q-45 0 -132 -5t-132 -5q-125 0 -125 119z" />
<glyph unicode="&#xb0;" d="M197 1042q0 127 92 218.5t223 91.5t223 -91.5t92 -218.5q0 -129 -92 -221t-223 -92t-223 92t-92 221zM354 1042q0 -66 46 -110.5t112 -44.5t112 45t46 108t-46 109.5t-112 46.5t-112 -45t-46 -109z" />
<glyph unicode="&#xb1;" d="M14 51v246h996v-246h-996zM14 733v246h365v354h266v-354h365v-246h-379v-356h-252v356h-365z" />
<glyph unicode="&#xb2;" horiz-adv-x="884" d="M45 688q0 213 320 338q121 47 155.5 73.5t34.5 74.5q0 41 -36 64.5t-95 23.5t-109 -27q25 -33 25 -70q0 -51 -38 -87t-91 -36q-61 0 -99 41t-38 105q0 111 101 180.5t265 69.5q166 0 262.5 -73t96.5 -198q0 -131 -107 -202q-81 -56 -241 -103q-123 -37 -161 -62.5 t-46 -78.5q61 72 153 72q68 0 140.5 -54.5t103.5 -54.5q20 0 45 21q-80 16 -80 88q0 43 30 71.5t75 28.5q59 0 97 -47t38 -119q0 -94 -66.5 -164.5t-152.5 -70.5q-92 0 -195 79q-70 55 -92 56q-12 0 -25 -13q8 -16 9 -28q0 -43 -32 -71t-81 -28q-70 0 -118 57.5t-48 143.5z " />
<glyph unicode="&#xb3;" horiz-adv-x="884" d="M53 750q0 66 40 109.5t100 43.5q51 0 88.5 -33.5t37.5 -85.5q0 -41 -34 -79q35 -27 57.5 -34t65.5 -7q76 0 125 37.5t49 97.5q0 115 -170 121q-63 2 -64 63q0 53 47 104l133 146h-192q-59 0 -60 -33q0 -12 6.5 -35.5t6.5 -36.5q0 -115 -109 -114q-43 0 -71.5 27.5 t-28.5 72.5q0 20 7 65.5t7 65.5t-5 56t-5 53q0 66 76 65h8q80 -2 170 -2l393 2q43 0 59.5 -18.5t16.5 -67.5q0 -70 -49 -123l-158 -163q102 -10 159.5 -75t57.5 -167q0 -143 -110.5 -230.5t-294.5 -87.5q-160 0 -259.5 73t-99.5 190z" />
<glyph unicode="&#xb4;" horiz-adv-x="1007" d="M315 1241q0 39 39 72q14 10 74 43l190 104q59 33 113 33q49 0 86 -42t37 -99q0 -76 -133 -127l-186 -72q-86 -33 -125 -33q-51 0 -80 64q-15 32 -15 57z" />
<glyph unicode="&#xb5;" d="M55 -354v1337h264v-520q0 -274 201 -275q190 0 191 283v512h262v-983h-262v115q-70 -135 -197 -135q-123 0 -195 124v-458h-264z" />
<glyph unicode="&#xb6;" horiz-adv-x="1366" d="M55 1006q0 121 60.5 207.5t168 119.5t244.5 33h689v-205h-152v-1349h-225v1349h-170v-1349h-226v845h-24q-162 0 -263.5 96.5t-101.5 252.5z" />
<glyph unicode="&#xb7;" horiz-adv-x="454" d="M0 723q0 94 66.5 161.5t160.5 67.5t161 -67.5t67 -161.5t-67 -160.5t-161 -66.5t-160.5 66.5t-66.5 160.5z" />
<glyph unicode="&#xb8;" horiz-adv-x="1007" d="M233 -393q0 29 20.5 51.5t47.5 22.5q18 0 55 -13q102 -35 168 -35q121 0 121 60q0 57 -113 57q-20 0 -47 -2q-51 -4 -65 -4q-76 0 -76 66q0 33 21 67l73 123h191l-60 -131q66 10 82 10q88 0 146.5 -50t58.5 -124q0 -102 -95 -171t-235 -69q-125 0 -209 41t-84 101z" />
<glyph unicode="&#xb9;" horiz-adv-x="884" d="M170 604q0 41 22.5 64.5t59.5 23.5q12 0 37.5 -3t38.5 -3q33 0 41 43v72v373q0 63 -45 63q-8 0 -31 -4q-27 -6 -45 -6q-78 0 -78 90q0 47 27.5 74.5t74.5 27.5q25 0 71 -7t69 -7q29 0 80 10q20 4 43 4q37 0 51 -20q8 -17 8 -58v-606q0 -49 37 -49q12 0 31.5 3t31.5 3 q86 0 86 -86q0 -47 -25.5 -74.5t-66.5 -27.5q-10 0 -14 2l-82 8q-35 4 -123 4q-82 0 -100 -2l-82 -10q-6 -2 -15 -2q-47 0 -74.5 27.5t-27.5 72.5z" />
<glyph unicode="&#xba;" horiz-adv-x="894" d="M127 1092q0 135 85 211.5t234 76.5q150 0 235 -75.5t85 -208.5q0 -139 -82.5 -217t-232.5 -78q-154 0 -239 76.5t-85 214.5zM129 608v68h635v-68h-635zM328 1090q0 -156 123 -156q115 0 114 158q1 155 -114 155q-123 0 -123 -157z" />
<glyph unicode="&#xbb;" horiz-adv-x="1118" d="M100 813q0 74 82 74q59 0 146 -76l161 -143q94 -84 95 -129q0 -41 -41 -80l-209 -203q-84 -82 -127 -82q-31 0 -54.5 25.5t-23.5 58.5q0 45 43 102l109 148q16 23 16 37q0 10 -14 26l-19 21l-86 94q-78 86 -78 127zM590 813q0 74 82 74q57 0 143 -76l164 -143 q94 -82 94 -129q0 -41 -41 -80l-209 -203q-84 -82 -127 -82q-31 0 -55.5 24.5t-24.5 57.5q1 43 46 104l108 148q16 23 16 37q0 10 -14 26l-18 21l-86 94q-78 86 -78 127z" />
<glyph unicode="&#xbc;" horiz-adv-x="1513" d="M41 889q0 31 17.5 49t45.5 18q8 0 28 -2t28 -2q25 0 30 33q2 6 3 53v283q0 47 -35 47q-6 0 -23 -2q-20 -4 -35 -4q-59 0 -59 68q0 35 21.5 56t56.5 21q18 0 53 -5t53 -5q20 0 60 6q16 4 32 4q29 0 39 -16q6 -12 6 -43v-459q0 -37 29 -37q8 0 23.5 2t23.5 2q66 0 66 -65 q0 -35 -19.5 -56.5t-50.5 -21.5h-10l-64 8q-27 4 -92 4q-61 0 -78 -2l-61 -10h-10q-35 0 -56.5 21.5t-21.5 54.5zM289 18q0 18 8 35l641 1293q20 41 82 40q94 1 94 -40q0 -12 -12 -37l-633 -1282q-14 -31 -30.5 -39t-59.5 -8q-66 0 -82 14q-8 8 -8 24zM825 252q0 47 41 100 l236 301q39 49 123 49q63 0 88.5 -19.5t23.5 -66.5l-4 -297h78q61 0 62 -59q0 -63 -70 -63h-70v-15q0 -29 4 -39q8 -16 33 -16q2 0 14 2q27 4 25 4h6q25 0 39 -17.5t14 -45.5q0 -33 -18 -54.5t-47 -21.5q-20 0 -60 8q-27 4 -86 4q-72 0 -98 -4q-63 -8 -78 -8q-33 0 -54 20.5 t-21 53.5q0 66 75 65l47 -6h19q37 0 37 51v17h-291q-68 0 -68 57zM1006 317h174l4 228z" />
<glyph unicode="&#xbd;" horiz-adv-x="1501" d="M41 889q0 31 17.5 49t45.5 18q8 0 28 -2t28 -2q25 0 30 33q2 6 3 53v283q0 47 -35 47q-6 0 -23 -2q-20 -4 -35 -4q-59 0 -59 68q0 35 21.5 56t56.5 21q18 0 53 -5t53 -5q20 0 60 6q16 4 32 4q29 0 39 -16q6 -12 6 -43v-459q0 -37 29 -37q8 0 23.5 2t23.5 2q66 0 66 -65 q0 -35 -19.5 -56.5t-50.5 -21.5h-10l-64 8q-27 4 -92 4q-61 0 -78 -2l-61 -10h-10q-35 0 -56.5 21.5t-21.5 54.5zM289 18q0 18 8 35l641 1293q20 41 82 40q94 1 94 -40q0 -12 -12 -37l-633 -1282q-14 -31 -30.5 -39t-59.5 -8q-66 0 -82 14q-8 8 -8 24zM854 135 q0 160 242 254q92 37 118.5 57.5t26.5 55.5q0 31 -27.5 49t-72.5 18t-82 -20q18 -27 18 -53q0 -39 -28.5 -66t-69.5 -27q-45 0 -75 31t-30 78q0 84 78 137t201 53q125 0 198.5 -55t73.5 -149q0 -100 -82 -154q-61 -43 -182 -78q-92 -29 -120.5 -48t-36.5 -60q47 55 116 55 q51 0 106.5 -41t78.5 -41q16 0 34 14q-61 12 -61 68q0 33 23.5 54.5t56.5 21.5q45 0 73.5 -36t28.5 -89q0 -72 -50 -126t-116 -54q-70 0 -147 61q-53 43 -70 43q-10 0 -18 -10q6 -12 6 -23q0 -31 -24.5 -52t-61.5 -21q-53 0 -89 44t-36 109z" />
<glyph unicode="&#xbe;" horiz-adv-x="1595" d="M41 979q0 49 30.5 83t75.5 34q39 0 67 -26t28 -64q0 -31 -25 -62q25 -18 42 -24.5t50 -6.5q57 0 94 29t37 74q0 88 -129 92q-47 2 -47 49q0 39 35 78l102 111h-147q-43 0 -43 -25q0 -10 4 -27.5t4 -27.5q0 -86 -82 -86q-33 0 -54.5 20.5t-21.5 54.5q0 16 5.5 50t5.5 51 q0 14 -4.5 40.5t-4.5 41.5q0 49 58 49h6q61 -2 129 -2l299 2q33 0 45 -14.5t12 -51.5q0 -53 -39 -92l-118 -125q78 -8 122 -56t44 -128q0 -109 -84 -174.5t-224 -65.5q-121 0 -196.5 55.5t-75.5 143.5zM371 18q0 18 8 35l641 1293q20 41 82 40q94 1 94 -40q0 -12 -12 -37 l-633 -1282q-14 -31 -30.5 -39t-59.5 -8q-66 0 -82 14q-8 8 -8 24zM907 252q0 47 41 100l236 301q39 49 123 49q63 0 88.5 -19.5t23.5 -66.5l-4 -297h78q61 0 61 -59q0 -63 -69 -63h-70v-15q0 -29 4 -39q8 -16 33 -16q2 0 14 2q27 4 25 4h6q25 0 39 -17.5t14 -45.5 q0 -33 -18.5 -54.5t-46.5 -21.5q-20 0 -60 8q-27 4 -86 4q-72 0 -98 -4q-63 -8 -78 -8q-33 0 -54.5 20.5t-21.5 53.5q0 66 76 65l47 -6h19q37 0 37 51v17h-291q-68 0 -68 57zM1087 317h175l4 228z" />
<glyph unicode="&#xbf;" horiz-adv-x="1267" d="M51 51q0 86 37 167t94 124q82 61 244 98q49 12 63.5 24.5t16.5 49.5q2 55 23.5 73.5t88.5 20.5l58 2h20q80 0 111 -31.5t31 -113.5q0 -102 -48.5 -153.5t-177.5 -80.5q-201 -45 -200 -176q0 -72 60.5 -119t154.5 -47q111 0 174 58q-63 51 -64 114q0 80 60.5 136.5 t148.5 56.5q94 0 152.5 -62.5t58.5 -162.5q0 -176 -160.5 -292t-408.5 -116q-242 0 -389.5 119t-147.5 311zM483 864q0 80 56.5 137.5t138.5 57.5q80 0 136 -57.5t56 -137.5t-56 -137t-136 -57q-82 0 -138.5 57t-56.5 137z" />
<glyph unicode="&#xc0;" horiz-adv-x="1640" d="M-18 131q0 143 108 143q12 0 39 -3t39 -3q39 0 63 43q6 12 29 76l283 805q49 137 110 172q45 23 199 22q172 0 217 -21.5t74 -119.5l262 -872q31 -104 72 -105q12 0 43 6h22q115 0 115 -135q0 -68 -41 -108.5t-107 -40.5q-29 0 -75 6q-57 10 -76 10q-45 4 -117 4 q-78 0 -104 -4q-104 -16 -131 -16q-55 0 -91 42t-36 105q0 121 77 121q10 0 31 -3t31 -3q39 0 39 43q0 55 -22.5 92t-57.5 37h-272q-117 0 -117 -139q0 -33 35 -33q10 0 30.5 3t30.5 3q76 0 76 -121q0 -66 -35 -106.5t-92 -40.5q-29 0 -127 14q-43 6 -121 6q-84 0 -131 -6 q-109 -14 -129 -14q-63 0 -103 39t-40 102zM551 1698q0 55 38 98t85 43t112 -35l191 -102q61 -33 76 -45q37 -29 37 -72q0 -45 -29 -82t-64 -37q-51 0 -127 31l-184 74q-135 53 -135 127zM719 707q0 -25 51 -25h127q53 0 53 29q0 -3 -4 26l-98 420l-127 -436q-2 -6 -2 -14z " />
<glyph unicode="&#xc1;" horiz-adv-x="1640" d="M-18 131q0 143 108 143q12 0 39 -3t39 -3q39 0 63 43q6 12 29 76l283 805q49 137 110 172q45 23 199 22q172 0 217 -21.5t74 -119.5l262 -872q31 -104 72 -105q12 0 43 6h22q115 0 115 -135q0 -68 -41 -108.5t-107 -40.5q-29 0 -75 6q-57 10 -76 10q-45 4 -117 4 q-78 0 -104 -4q-104 -16 -131 -16q-55 0 -91 42t-36 105q0 121 77 121q10 0 31 -3t31 -3q39 0 39 43q0 55 -22.5 92t-57.5 37h-272q-117 0 -117 -139q0 -33 35 -33q10 0 30.5 3t30.5 3q76 0 76 -121q0 -66 -35 -106.5t-92 -40.5q-29 0 -127 14q-43 6 -121 6q-84 0 -131 -6 q-109 -14 -129 -14q-63 0 -103 39t-40 102zM578 1585q0 41 38 72q14 12 74 45l191 102q66 35 112 35q49 0 86 -42t37 -99q0 -74 -135 -127l-184 -74q-76 -31 -125 -31q-51 0 -80 64q-14 32 -14 55zM719 707q0 -25 51 -25h127q53 0 53 29q0 -3 -4 26l-98 420l-127 -436 q-2 -6 -2 -14z" />
<glyph unicode="&#xc2;" horiz-adv-x="1640" d="M-18 131q0 143 108 143q12 0 39 -3t39 -3q39 0 63 43q6 12 29 76l283 805q49 137 110 172q45 23 199 22q172 0 217 -21.5t74 -119.5l262 -872q31 -104 72 -105q12 0 43 6h22q115 0 115 -135q0 -68 -41 -108.5t-107 -40.5q-29 0 -75 6q-57 10 -76 10q-45 4 -117 4 q-78 0 -104 -4q-104 -16 -131 -16q-55 0 -91 42t-36 105q0 121 77 121q10 0 31 -3t31 -3q39 0 39 43q0 55 -22.5 92t-57.5 37h-272q-117 0 -117 -139q0 -33 35 -33q10 0 30.5 3t30.5 3q76 0 76 -121q0 -66 -35 -106.5t-92 -40.5q-29 0 -127 14q-43 6 -121 6q-84 0 -131 -6 q-109 -14 -129 -14q-63 0 -103 39t-40 102zM436 1573q0 63 107 117l137 69q129 66 180 66t172 -66l129 -69q98 -53 99 -111q0 -45 -25 -78t-57 -33q-31 0 -97 25l-225 84l-231 -84q-74 -27 -107 -27q-35 0 -58.5 31t-23.5 76zM719 707q0 -25 51 -25h127q53 0 53 29 q0 -3 -4 26l-98 420l-127 -436q-2 -6 -2 -14z" />
<glyph unicode="&#xc3;" horiz-adv-x="1640" d="M-18 131q0 143 108 143q12 0 39 -3t39 -3q39 0 63 43q6 12 29 76l283 805q49 137 110 172q45 23 199 22q172 0 217 -21.5t74 -119.5l262 -872q31 -104 72 -105q12 0 43 6h22q115 0 115 -135q0 -68 -41 -108.5t-107 -40.5q-29 0 -75 6q-57 10 -76 10q-45 4 -117 4 q-78 0 -104 -4q-104 -16 -131 -16q-55 0 -91 42t-36 105q0 121 77 121q10 0 31 -3t31 -3q39 0 39 43q0 55 -22.5 92t-57.5 37h-272q-117 0 -117 -139q0 -33 35 -33q10 0 30.5 3t30.5 3q76 0 76 -121q0 -66 -35 -106.5t-92 -40.5q-29 0 -127 14q-43 6 -121 6q-84 0 -131 -6 q-109 -14 -129 -14q-63 0 -103 39t-40 102zM428 1589q0 86 80 151.5t184 65.5q72 0 207 -53q68 -27 109 -27q33 0 57 17l59 39q25 16 52 16q92 0 92 -100q0 -84 -84 -148.5t-195 -64.5q-80 0 -215 59q-47 20 -78 21q-29 0 -55 -19l-51 -35q-37 -25 -64 -24q-39 0 -68.5 30.5 t-29.5 71.5zM719 707q0 -25 51 -25h127q53 0 53 29q0 -3 -4 26l-98 420l-127 -436q-2 -6 -2 -14z" />
<glyph unicode="&#xc4;" horiz-adv-x="1640" d="M-18 131q0 143 108 143q12 0 39 -3t39 -3q39 0 63 43q6 12 29 76l283 805q49 137 110 172q45 23 199 22q172 0 217 -21.5t74 -119.5l262 -872q31 -104 72 -105q12 0 43 6h22q115 0 115 -135q0 -68 -41 -108.5t-107 -40.5q-29 0 -75 6q-57 10 -76 10q-45 4 -117 4 q-78 0 -104 -4q-104 -16 -131 -16q-55 0 -91 42t-36 105q0 121 77 121q10 0 31 -3t31 -3q39 0 39 43q0 55 -22.5 92t-57.5 37h-272q-117 0 -117 -139q0 -33 35 -33q10 0 30.5 3t30.5 3q76 0 76 -121q0 -66 -35 -106.5t-92 -40.5q-29 0 -127 14q-43 6 -121 6q-84 0 -131 -6 q-109 -14 -129 -14q-63 0 -103 39t-40 102zM473 1647q0 72 52.5 124t125.5 52q74 0 125 -51.5t51 -124.5q0 -74 -52 -125.5t-124 -51.5q-74 0 -126 52.5t-52 124.5zM719 707q0 -25 51 -25h127q53 0 53 29q0 -3 -4 26l-98 420l-127 -436q-2 -6 -2 -14zM895 1647q0 72 52 124 t126 52q72 0 124 -51.5t52 -124.5q0 -72 -52 -124.5t-124 -52.5q-74 0 -126 51.5t-52 125.5z" />
<glyph unicode="&#xc5;" horiz-adv-x="1640" d="M-18 131q0 143 108 143q12 0 39 -3t39 -3q39 0 63 43q6 12 29 76l283 805q49 137 110 172q45 23 199 22q172 0 217 -21.5t74 -119.5l262 -872q31 -104 72 -105q12 0 43 6h22q115 0 115 -135q0 -68 -41 -108.5t-107 -40.5q-29 0 -75 6q-57 10 -76 10q-45 4 -117 4 q-78 0 -104 -4q-104 -16 -131 -16q-55 0 -91 42t-36 105q0 121 77 121q10 0 31 -3t31 -3q39 0 39 43q0 55 -22.5 92t-57.5 37h-272q-117 0 -117 -139q0 -33 35 -33q10 0 30.5 3t30.5 3q76 0 76 -121q0 -66 -35 -106.5t-92 -40.5q-29 0 -127 14q-43 6 -121 6q-84 0 -131 -6 q-109 -14 -129 -14q-63 0 -103 39t-40 102zM612 1696q0 102 72 174t174 72t174 -72t72 -174t-73 -174t-175 -72q-100 0 -172 71.5t-72 174.5zM719 707q0 -25 51 -25h127q53 0 53 29q0 -3 -4 26l-98 420l-127 -436q-2 -6 -2 -14zM758 1696q0 -43 28.5 -73t71.5 -30 q41 0 70.5 30t29.5 73t-29.5 72.5t-70.5 29.5t-70.5 -30.5t-29.5 -71.5z" />
<glyph unicode="&#xc6;" horiz-adv-x="2162" d="M-135 137q0 139 108 139q18 0 37 -6q31 -6 41 -6q35 0 152 211l452 813q27 49 53.5 67.5t79.5 18.5h66q430 -10 518 -10q219 0 526 10h17q72 0 97.5 -22.5t25.5 -83.5q0 -23 -4 -82q-6 -88 -6 -101q0 -31 8 -89t8 -87q0 -68 -43 -109.5t-113 -41.5q-152 0 -151 155 q0 25 9 73t9 73q0 41 -25.5 51t-130.5 10h-120q-72 0 -97 -6q-53 -14 -53 -65v-150q0 -63 51 -63q80 0 80 69q0 16 -2 25v16q-2 12 -2 19q0 82 100 82q102 0 103 -99v-20q-2 -14 -2 -21q-8 -57 -8 -127q0 -53 10 -180q6 -76 6 -94q0 -119 -104 -119q-106 0 -107 109v43 q0 59 -61 59q-63 0 -64 -51v-166q0 -76 33 -102.5t123 -26.5h84q104 0 133 8q72 18 72 90q0 25 -7.5 72t-7.5 72q0 72 44 115.5t116 43.5q68 0 108.5 -45t40.5 -119q0 -37 -9 -114.5t-9 -118.5q0 -29 8 -83t8 -83q0 -100 -145 -100q-16 0 -145 6q-111 6 -258 10 q-121 4 -172 4h-158l-195 -6l-106 -14q-6 -2 -19 -2q-59 0 -98 43t-39 108q0 57 30 96t73 39q16 0 45.5 -7t44.5 -7q53 0 53 139v142q0 37 -11.5 46t-52.5 9h-204q-53 0 -73.5 -10t-45.5 -49l-29 -45l-67 -111q-31 -51 -31 -78q0 -29 45 -29q16 0 24 2h27q94 0 94 -139 q0 -68 -40 -107.5t-105 -39.5q-43 0 -130 10t-132 10q-78 0 -133 -8q-82 -12 -113 -12q-61 0 -98 40t-37 107zM745 858q0 -39 58 -39h110q58 1 62 60l2 39v165q0 55 -14 68q-8 6 -27 6q-23 0 -35 -12t-39 -62l-106 -196q-10 -14 -11 -29z" />
<glyph unicode="&#xc7;" horiz-adv-x="1304" d="M61 670q0 342 155 537.5t427 195.5q197 0 342 -143q-2 6 -2 20q0 115 123 115q57 0 93 -36t36 -93q0 -27 -6 -78q-10 -84 -10 -121q0 -27 7 -79t7 -79q0 -63 -46 -102t-120 -39q-156 0 -152 129l3 64q2 68 -55.5 111.5t-145.5 43.5q-274 0 -275 -434q0 -225 66.5 -328.5 t212.5 -103.5q90 0 147.5 42t55.5 109l-2 74q-2 63 41 102t110 39q86 0 136.5 -57t50.5 -156q0 -184 -143.5 -309t-360.5 -129l-41 -82q59 16 114 17q94 0 148.5 -46.5t54.5 -127.5q0 -123 -106.5 -209t-259.5 -86q-133 0 -242 60t-109 134q0 35 23.5 61.5t56.5 26.5 q23 0 60 -20q135 -76 225 -76q51 0 86 21.5t35 52.5q0 57 -96 57q-16 0 -49 -3t-50 -3q-45 0 -75.5 29.5t-30.5 70.5q0 27 24 66l43 65q-111 23 -182 62q-324 174 -324 635z" />
<glyph unicode="&#xc8;" horiz-adv-x="1527" d="M37 139q0 57 31.5 96t81.5 39q16 0 48.5 -7t47.5 -7q55 0 55 139v568q0 137 -55 137q-12 0 -49 -8q-27 -6 -47 -6q-47 0 -80 38.5t-33 96.5q0 150 149 149q35 0 142 -8q160 -12 309 -12q14 0 246 6q168 4 221 8q88 6 184 6q115 0 115 -100q0 -33 -7 -96.5t-7 -96.5t9 -93 t9 -91q0 -59 -44 -100t-110 -41q-154 0 -153 157q0 27 9 74t9 70q0 45 -47 55q-16 4 -86 4h-203q-68 0 -90 -12q-31 -18 -30 -82v-115q0 -35 9 -52t48 -17q90 0 90 65v27q-2 12 -2 31q0 86 100 86q104 0 105 -105q0 -29 -4 -63q-8 -68 -9 -125q0 -53 8.5 -135t8.5 -115 q0 -121 -109 -121q-102 0 -102 104v11q0 10 4 49q0 49 -88 49q-59 0 -59 -66v-153q0 -72 25.5 -97.5t94.5 -25.5h119q131 0 183.5 22.5t52.5 79.5q0 29 -6.5 69t-6.5 67q0 76 43 118.5t117 42.5q150 0 150 -164q0 -53 -7 -112q-10 -98 -10 -123q0 -23 10 -88q6 -39 7 -80 q0 -96 -121 -96q-39 0 -129 6q-150 10 -477 14h-183q-102 0 -170 -6l-155 -14q-2 0 -9 -2h-10q-63 0 -103 43t-40 108zM455 1698q0 55 37.5 98t85.5 43q47 0 112 -35l191 -102q61 -33 75 -45q37 -29 37 -72q0 -45 -29.5 -82t-64.5 -37q-47 0 -125 31l-186 74 q-133 53 -133 127z" />
<glyph unicode="&#xc9;" horiz-adv-x="1527" d="M37 139q0 57 31.5 96t81.5 39q16 0 48.5 -7t47.5 -7q55 0 55 139v568q0 137 -55 137q-12 0 -49 -8q-27 -6 -47 -6q-47 0 -80 38.5t-33 96.5q0 150 149 149q35 0 142 -8q160 -12 309 -12q14 0 246 6q168 4 221 8q88 6 184 6q115 0 115 -100q0 -33 -7 -96.5t-7 -96.5t9 -93 t9 -91q0 -59 -44 -100t-110 -41q-154 0 -153 157q0 27 9 74t9 70q0 45 -47 55q-16 4 -86 4h-203q-68 0 -90 -12q-31 -18 -30 -82v-115q0 -35 9 -52t48 -17q90 0 90 65v27q-2 12 -2 31q0 86 100 86q104 0 105 -105q0 -29 -4 -63q-8 -68 -9 -125q0 -53 8.5 -135t8.5 -115 q0 -121 -109 -121q-102 0 -102 104v11q0 10 4 49q0 49 -88 49q-59 0 -59 -66v-153q0 -72 25.5 -97.5t94.5 -25.5h119q131 0 183.5 22.5t52.5 79.5q0 29 -6.5 69t-6.5 67q0 76 43 118.5t117 42.5q150 0 150 -164q0 -53 -7 -112q-10 -98 -10 -123q0 -23 10 -88q6 -39 7 -80 q0 -96 -121 -96q-39 0 -129 6q-150 10 -477 14h-183q-102 0 -170 -6l-155 -14q-2 0 -9 -2h-10q-63 0 -103 43t-40 108zM522 1585q0 43 37 72q14 12 74 45l190 102q66 35 113 35q49 0 87 -42t38 -99q0 -74 -135 -127l-185 -74q-76 -31 -125 -31q-51 0 -79 64q-15 32 -15 55z " />
<glyph unicode="&#xca;" horiz-adv-x="1527" d="M37 139q0 57 31.5 96t81.5 39q16 0 48.5 -7t47.5 -7q55 0 55 139v568q0 137 -55 137q-12 0 -49 -8q-27 -6 -47 -6q-47 0 -80 38.5t-33 96.5q0 150 149 149q35 0 142 -8q160 -12 309 -12q14 0 246 6q168 4 221 8q88 6 184 6q115 0 115 -100q0 -33 -7 -96.5t-7 -96.5t9 -93 t9 -91q0 -59 -44 -100t-110 -41q-154 0 -153 157q0 27 9 74t9 70q0 45 -47 55q-16 4 -86 4h-203q-68 0 -90 -12q-31 -18 -30 -82v-115q0 -35 9 -52t48 -17q90 0 90 65v27q-2 12 -2 31q0 86 100 86q104 0 105 -105q0 -29 -4 -63q-8 -68 -9 -125q0 -53 8.5 -135t8.5 -115 q0 -121 -109 -121q-102 0 -102 104v11q0 10 4 49q0 49 -88 49q-59 0 -59 -66v-153q0 -72 25.5 -97.5t94.5 -25.5h119q131 0 183.5 22.5t52.5 79.5q0 29 -6.5 69t-6.5 67q0 76 43 118.5t117 42.5q150 0 150 -164q0 -53 -7 -112q-10 -98 -10 -123q0 -23 10 -88q6 -39 7 -80 q0 -96 -121 -96q-39 0 -129 6q-150 10 -477 14h-183q-102 0 -170 -6l-155 -14q-2 0 -9 -2h-10q-63 0 -103 43t-40 108zM350 1573q0 61 109 117l137 69q129 66 180 66t172 -66l129 -69q98 -53 99 -111q0 -45 -25 -78t-57 -33q-31 0 -97 25l-225 84l-231 -84q-74 -27 -107 -27 q-35 0 -59.5 31t-24.5 76z" />
<glyph unicode="&#xcb;" horiz-adv-x="1527" d="M37 139q0 57 31.5 96t81.5 39q16 0 48.5 -7t47.5 -7q55 0 55 139v568q0 137 -55 137q-12 0 -49 -8q-27 -6 -47 -6q-47 0 -80 38.5t-33 96.5q0 150 149 149q35 0 142 -8q160 -12 309 -12q14 0 246 6q168 4 221 8q88 6 184 6q115 0 115 -100q0 -33 -7 -96.5t-7 -96.5t9 -93 t9 -91q0 -59 -44 -100t-110 -41q-154 0 -153 157q0 27 9 74t9 70q0 45 -47 55q-16 4 -86 4h-203q-68 0 -90 -12q-31 -18 -30 -82v-115q0 -35 9 -52t48 -17q90 0 90 65v27q-2 12 -2 31q0 86 100 86q104 0 105 -105q0 -29 -4 -63q-8 -68 -9 -125q0 -53 8.5 -135t8.5 -115 q0 -121 -109 -121q-102 0 -102 104v11q0 10 4 49q0 49 -88 49q-59 0 -59 -66v-153q0 -72 25.5 -97.5t94.5 -25.5h119q131 0 183.5 22.5t52.5 79.5q0 29 -6.5 69t-6.5 67q0 76 43 118.5t117 42.5q150 0 150 -164q0 -53 -7 -112q-10 -98 -10 -123q0 -23 10 -88q6 -39 7 -80 q0 -96 -121 -96q-39 0 -129 6q-150 10 -477 14h-183q-102 0 -170 -6l-155 -14q-2 0 -9 -2h-10q-63 0 -103 43t-40 108zM375 1647q0 72 52 124t126 52q72 0 124 -51.5t52 -124.5q0 -74 -52 -125.5t-124 -51.5q-74 0 -126 52.5t-52 124.5zM797 1647q0 72 52 124t124 52 q74 0 126 -51.5t52 -124.5q0 -72 -52 -124.5t-124 -52.5q-74 0 -126 51.5t-52 125.5z" />
<glyph unicode="&#xcc;" horiz-adv-x="968" d="M37 139q0 59 31.5 97t81.5 38q16 0 48 -7t48 -7q41 0 51 53q4 20 4 86v568q0 66 -4 84q-10 53 -51 53q-16 0 -48 -7t-51 -7q-47 0 -78.5 38.5t-31.5 96.5q0 70 40 109.5t107 39.5q31 0 144 -12q76 -8 147 -8q57 0 165 10t142 10q150 0 150 -149q0 -57 -32 -96t-79 -39 q-16 0 -49 7t-49 7q-55 0 -55 -137v-568q0 -139 55 -139q16 0 49 7t49 7q47 0 79 -38.5t32 -96.5q0 -66 -40 -108.5t-101 -42.5q-12 0 -19 2l-129 16q-49 6 -108 6q-92 0 -193 -10q-121 -12 -158 -12q-66 0 -106.5 41t-40.5 108zM217 1698q0 55 37 98t86 43q47 0 113 -35 l190 -102q59 -33 74 -45q37 -29 37 -72q0 -45 -28.5 -82t-63.5 -37q-51 0 -127 31l-185 74q-133 53 -133 127z" />
<glyph unicode="&#xcd;" horiz-adv-x="968" d="M37 139q0 59 31.5 97t81.5 38q16 0 48 -7t48 -7q41 0 51 53q4 20 4 86v568q0 66 -4 84q-10 53 -51 53q-16 0 -48 -7t-51 -7q-47 0 -78.5 38.5t-31.5 96.5q0 70 40 109.5t107 39.5q31 0 144 -12q76 -8 147 -8q57 0 165 10t142 10q150 0 150 -149q0 -57 -32 -96t-79 -39 q-16 0 -49 7t-49 7q-55 0 -55 -137v-568q0 -139 55 -139q16 0 49 7t49 7q47 0 79 -38.5t32 -96.5q0 -66 -40 -108.5t-101 -42.5q-12 0 -19 2l-129 16q-49 6 -108 6q-92 0 -193 -10q-121 -12 -158 -12q-66 0 -106.5 41t-40.5 108zM215 1585q0 41 39 72q14 12 74 45l190 102 q66 35 113 35q49 0 86 -42t37 -99q0 -74 -136 -127l-184 -74q-76 -31 -125 -31q-51 0 -80 64q-14 32 -14 55z" />
<glyph unicode="&#xce;" horiz-adv-x="968" d="M37 139q0 59 31.5 97t81.5 38q16 0 48 -7t48 -7q41 0 51 53q4 20 4 86v568q0 66 -4 84q-10 53 -51 53q-16 0 -48 -7t-51 -7q-47 0 -78.5 38.5t-31.5 96.5q0 70 40 109.5t107 39.5q31 0 144 -12q76 -8 147 -8q57 0 165 10t142 10q150 0 150 -149q0 -57 -32 -96t-79 -39 q-16 0 -49 7t-49 7q-55 0 -55 -137v-568q0 -139 55 -139q16 0 49 7t49 7q47 0 79 -38.5t32 -96.5q0 -66 -40 -108.5t-101 -42.5q-12 0 -19 2l-129 16q-49 6 -108 6q-92 0 -193 -10q-121 -12 -158 -12q-66 0 -106.5 41t-40.5 108zM74 1573q0 63 106 117l137 69q129 66 181 66 q51 0 172 -66l129 -69q98 -53 98 -111q0 -45 -24.5 -78t-57.5 -33q-30 0 -96 25l-225 84l-232 -84q-74 -27 -106 -27q-35 0 -58.5 31t-23.5 76z" />
<glyph unicode="&#xcf;" horiz-adv-x="968" d="M37 139q0 59 31.5 97t81.5 38q16 0 48 -7t48 -7q41 0 51 53q4 20 4 86v568q0 66 -4 84q-10 53 -51 53q-16 0 -48 -7t-51 -7q-47 0 -78.5 38.5t-31.5 96.5q0 70 40 109.5t107 39.5q31 0 144 -12q76 -8 147 -8q57 0 165 10t142 10q150 0 150 -149q0 -57 -32 -96t-79 -39 q-16 0 -49 7t-49 7q-55 0 -55 -137v-568q0 -139 55 -139q16 0 49 7t49 7q47 0 79 -38.5t32 -96.5q0 -66 -40 -108.5t-101 -42.5q-12 0 -19 2l-129 16q-49 6 -108 6q-92 0 -193 -10q-121 -12 -158 -12q-66 0 -106.5 41t-40.5 108zM96 1647q0 72 52.5 124t125.5 52 q74 0 125.5 -51.5t51.5 -124.5q0 -74 -52.5 -125.5t-124.5 -51.5q-74 0 -126 52.5t-52 124.5zM518 1647q0 72 52.5 124t125.5 52q72 0 124 -51.5t52 -124.5q0 -72 -52 -124.5t-124 -52.5q-74 0 -126 51.5t-52 125.5z" />
<glyph unicode="&#xd0;" horiz-adv-x="1527" d="M37 139q0 57 31.5 96t78.5 39q18 0 51 -7t48 -7q55 0 55 139v187h-22q-8 4 -27 4h-49q-109 0 -109 106q0 119 113 119h37q35 0 45 10h12v142q0 137 -55 137q-16 0 -48 -7t-51 -7q-47 0 -78.5 38.5t-31.5 96.5q0 68 41 108.5t106 40.5q35 0 144 -12q72 -8 137 -8 q25 0 115 6l149 10q59 4 117 4q371 0 530 -313q90 -176 90 -379t-86 -373t-229 -250q-127 -70 -303 -69q-70 0 -119 4l-149 12q-49 4 -115 4q-82 0 -137 -6l-82 -8q-47 -6 -62 -6q-66 0 -106.5 41t-40.5 108zM662 360q0 -63 23.5 -85.5t92.5 -22.5q113 0 203 92 q104 109 104 322q0 240 -104 354q-47 51 -102 74q-48 18 -101 18q-70 0 -93 -21.5t-23 -84.5v-191h55q119 0 119 -110q0 -115 -113 -115l-61 -2v-228z" />
<glyph unicode="&#xd1;" horiz-adv-x="1789" d="M37 139q0 57 31.5 96t78.5 39q18 0 50 -7t49 -7q55 0 55 139v568q0 137 -55 137q-16 0 -48 -7t-51 -7q-47 0 -78.5 38.5t-31.5 96.5q0 68 41 108.5t106 40.5q43 0 125 -10t129 -10q39 0 133 8q43 2 99 8q25 4 53 4q55 0 86 -43q12 -16 45 -94l360 -877v607q0 137 -53 137 q-14 0 -41.5 -7t-42.5 -7q-43 0 -72.5 38.5t-29.5 96.5q0 68 39 108.5t102 40.5q33 0 113 -10t141 -10q55 0 129 8q111 12 137 12q66 0 107 -41t41 -108q0 -57 -33 -96t-80 -39q-18 0 -49 7t-47 7q-41 0 -53 -51q-4 -20 -4 -86v-834q0 -135 -111 -135q-20 0 -62 3t-63 3 q-2 0 -100 -4h-45q-59 0 -88 29q-16 16 -48 88l-395 901v-619q0 -139 53 -139q14 0 44 7t45 7q43 0 72.5 -38.5t29.5 -96.5q0 -150 -143 -149q-41 0 -136 12q-63 8 -127 8q-53 0 -143 -10t-115 -10q-150 0 -149 149zM475 1589q0 86 80 151.5t186 65.5q70 0 205 -53 q68 -27 109 -27q33 0 57 17l59 39q25 16 52 16q92 0 92 -100q0 -84 -84 -148.5t-193 -64.5q-82 0 -217 59q-47 20 -78 21q-29 0 -55 -19l-51 -35q-37 -25 -64 -24q-39 0 -68.5 30.5t-29.5 71.5z" />
<glyph unicode="&#xd2;" horiz-adv-x="1417" d="M61 686q0 334 169 525.5t466 191.5q311 0 485.5 -186.5t174.5 -520.5q0 -346 -169 -539.5t-474 -193.5q-311 0 -481.5 188.5t-170.5 534.5zM412 1698q0 55 37.5 98t87.5 43q45 0 110 -35l191 -102q61 -33 75 -45q37 -29 37 -72q0 -45 -28.5 -82t-63.5 -37q-51 0 -127 31 l-184 74q-135 53 -135 127zM444 682q0 -207 52 -307q63 -125 213 -125q264 0 264 422q0 233 -62.5 338.5t-199.5 105.5q-266 0 -267 -434z" />
<glyph unicode="&#xd3;" horiz-adv-x="1417" d="M61 686q0 334 169 525.5t466 191.5q311 0 485.5 -186.5t174.5 -520.5q0 -346 -169 -539.5t-474 -193.5q-311 0 -481.5 188.5t-170.5 534.5zM438 1585q0 41 39 72q14 12 74 45l190 102q66 35 113 35q49 0 86 -42t37 -99q0 -74 -133 -127l-187 -74q-78 -31 -125 -31 q-51 0 -79 64q-15 32 -15 55zM444 682q0 -207 52 -307q63 -125 213 -125q264 0 264 422q0 233 -62.5 338.5t-199.5 105.5q-266 0 -267 -434z" />
<glyph unicode="&#xd4;" horiz-adv-x="1417" d="M61 686q0 334 169 525.5t466 191.5q311 0 485.5 -186.5t174.5 -520.5q0 -346 -169 -539.5t-474 -193.5q-311 0 -481.5 188.5t-170.5 534.5zM297 1573q0 43 35 74q16 14 74 43l135 69q127 66 180 66q51 0 172 -66l129 -69q98 -53 98 -111q0 -45 -24.5 -78t-57.5 -33 q-30 0 -96 25l-225 84l-232 -84q-74 -27 -106 -27q-35 0 -58.5 31t-23.5 76zM444 682q0 -207 52 -307q63 -125 213 -125q264 0 264 422q0 233 -62.5 338.5t-199.5 105.5q-266 0 -267 -434z" />
<glyph unicode="&#xd5;" horiz-adv-x="1417" d="M61 686q0 334 169 525.5t466 191.5q311 0 485.5 -186.5t174.5 -520.5q0 -346 -169 -539.5t-474 -193.5q-311 0 -481.5 188.5t-170.5 534.5zM289 1589q0 86 80 151.5t186 65.5q70 0 205 -53q67 -27 108 -27q33 0 58 17l59 39q25 16 51 16q92 0 92 -100q0 -84 -83.5 -148.5 t-194.5 -64.5q-80 0 -215 59q-47 20 -78 21q-29 0 -55 -19l-51 -35q-37 -25 -64 -24q-39 0 -68.5 30.5t-29.5 71.5zM444 682q0 -207 52 -307q63 -125 213 -125q264 0 264 422q0 233 -62.5 338.5t-199.5 105.5q-266 0 -267 -434z" />
<glyph unicode="&#xd6;" horiz-adv-x="1417" d="M61 686q0 334 169 525.5t466 191.5q311 0 485.5 -186.5t174.5 -520.5q0 -346 -169 -539.5t-474 -193.5q-311 0 -481.5 188.5t-170.5 534.5zM354 1647q0 72 52.5 124t125.5 52q74 0 125.5 -51.5t51.5 -124.5q0 -74 -52.5 -125.5t-124.5 -51.5q-74 0 -126 52.5t-52 124.5z M444 682q0 -207 52 -307q63 -125 213 -125q264 0 264 422q0 233 -62.5 338.5t-199.5 105.5q-266 0 -267 -434zM776 1647q0 72 52.5 124t125.5 52q72 0 124 -51.5t52 -124.5q0 -72 -52 -124.5t-124 -52.5q-74 0 -126 51.5t-52 125.5z" />
<glyph unicode="&#xd7;" d="M109 481l223 224l-221 219l174 174l219 -221l223 223l188 -189l-223 -223l221 -219l-174 -174l-219 221l-223 -223z" />
<glyph unicode="&#xd8;" horiz-adv-x="1417" d="M35 -96q0 18 31 63l145 209q-150 172 -150 496q0 496 326 659q143 72 303 72q172 0 328 -68l90 127q33 47 109 47q141 0 141 -55q0 -16 -23 -47l-147 -205q33 -43 88 -135q78 -160 78 -399q0 -319 -175 -512t-466 -193q-186 0 -334 74l-88 -129q-25 -37 -47.5 -47.5 t-67.5 -10.5q-141 0 -141 54zM422 639q0 -94 16 -184l400 635q-61 31 -131 30q-285 0 -285 -481zM565 287q55 -43 142 -43q287 0 286 438q1 123 -26 238z" />
<glyph unicode="&#xd9;" horiz-adv-x="1714" d="M25 1223q0 70 44 110.5t115 40.5q45 0 135.5 -10t135.5 -10q39 0 115.5 10t115.5 10q61 0 98 -41t37 -110q0 -123 -84 -123h-20q-10 2 -27 2q-35 0 -41 -43v-72v-469q0 -141 48 -199.5t163 -58.5t167 60.5t52 197.5v469q0 76 -8 95.5t-37 19.5q-14 0 -24 -2h-21 q-84 0 -84 125q0 68 38 108.5t99 40.5q39 0 118 -10t118 -10q45 0 135 10t135 10q70 0 112 -41t42 -110q0 -59 -32 -96t-83 -37q-16 0 -46 7t-44 7q-59 0 -59 -117v-90l2 -180v-64q0 -229 -6 -274q-16 -156 -101 -244q-162 -172 -489 -172q-338 0 -479 178q-86 109 -86 322 q0 18 6 227q4 139 4 223v80q0 111 -60 111q-14 0 -44.5 -7t-49.5 -7q-47 0 -78.5 37.5t-31.5 95.5zM567 1698q0 55 38 98t85 43t113 -35l190 -102q61 -33 76 -45q37 -29 37 -72q0 -45 -28.5 -82t-65.5 -37q-49 0 -125 31l-185 74q-135 53 -135 127z" />
<glyph unicode="&#xda;" horiz-adv-x="1714" d="M25 1223q0 70 44 110.5t115 40.5q45 0 135.5 -10t135.5 -10q39 0 115.5 10t115.5 10q61 0 98 -41t37 -110q0 -123 -84 -123h-20q-10 2 -27 2q-35 0 -41 -43v-72v-469q0 -141 48 -199.5t163 -58.5t167 60.5t52 197.5v469q0 76 -8 95.5t-37 19.5q-14 0 -24 -2h-21 q-84 0 -84 125q0 68 38 108.5t99 40.5q39 0 118 -10t118 -10q45 0 135 10t135 10q70 0 112 -41t42 -110q0 -59 -32 -96t-83 -37q-16 0 -46 7t-44 7q-59 0 -59 -117v-90l2 -180v-64q0 -229 -6 -274q-16 -156 -101 -244q-162 -172 -489 -172q-338 0 -479 178q-86 109 -86 322 q0 18 6 227q4 139 4 223v80q0 111 -60 111q-14 0 -44.5 -7t-49.5 -7q-47 0 -78.5 37.5t-31.5 95.5zM594 1585q0 41 39 72q14 12 74 45l190 102q66 35 113 35q49 0 86 -42t37 -99q0 -74 -136 -127l-184 -74q-76 -31 -125 -31q-51 0 -80 64q-14 32 -14 55z" />
<glyph unicode="&#xdb;" horiz-adv-x="1714" d="M25 1223q0 70 44 110.5t115 40.5q45 0 135.5 -10t135.5 -10q39 0 115.5 10t115.5 10q61 0 98 -41t37 -110q0 -123 -84 -123h-20q-10 2 -27 2q-35 0 -41 -43v-72v-469q0 -141 48 -199.5t163 -58.5t167 60.5t52 197.5v469q0 76 -8 95.5t-37 19.5q-14 0 -24 -2h-21 q-84 0 -84 125q0 68 38 108.5t99 40.5q39 0 118 -10t118 -10q45 0 135 10t135 10q70 0 112 -41t42 -110q0 -59 -32 -96t-83 -37q-16 0 -46 7t-44 7q-59 0 -59 -117v-90l2 -180v-64q0 -229 -6 -274q-16 -156 -101 -244q-162 -172 -489 -172q-338 0 -479 178q-86 109 -86 322 q0 18 6 227q4 139 4 223v80q0 111 -60 111q-14 0 -44.5 -7t-49.5 -7q-47 0 -78.5 37.5t-31.5 95.5zM453 1573q0 63 106 117l137 69q129 66 181 66q51 0 172 -66l129 -69q98 -53 98 -111q0 -45 -24.5 -78t-57.5 -33q-30 0 -96 25l-226 84l-231 -84q-74 -27 -106 -27 q-35 0 -58.5 31t-23.5 76z" />
<glyph unicode="&#xdc;" horiz-adv-x="1714" d="M25 1223q0 70 44 110.5t115 40.5q45 0 135.5 -10t135.5 -10q39 0 115.5 10t115.5 10q61 0 98 -41t37 -110q0 -123 -84 -123h-20q-10 2 -27 2q-35 0 -41 -43v-72v-469q0 -141 48 -199.5t163 -58.5t167 60.5t52 197.5v469q0 76 -8 95.5t-37 19.5q-14 0 -24 -2h-21 q-84 0 -84 125q0 68 38 108.5t99 40.5q39 0 118 -10t118 -10q45 0 135 10t135 10q70 0 112 -41t42 -110q0 -59 -32 -96t-83 -37q-16 0 -46 7t-44 7q-59 0 -59 -117v-90l2 -180v-64q0 -229 -6 -274q-16 -156 -101 -244q-162 -172 -489 -172q-338 0 -479 178q-86 109 -86 322 q0 18 6 227q4 139 4 223v80q0 111 -60 111q-14 0 -44.5 -7t-49.5 -7q-47 0 -78.5 37.5t-31.5 95.5zM477 1647q0 72 51.5 124t124.5 52q74 0 125 -51.5t51 -124.5q0 -74 -51 -125.5t-125 -51.5q-72 0 -124 52.5t-52 124.5zM899 1647q0 72 51 124t125 52t125 -51.5t51 -124.5 q0 -72 -51 -124.5t-125 -52.5t-125 51.5t-51 125.5z" />
<glyph unicode="&#xdd;" horiz-adv-x="1527" d="M-33 1214q0 160 144 160q37 0 116.5 -10t122.5 -10q57 0 144 12q57 8 92 8q139 0 139 -153q0 -63 -47 -88q-29 -16 -41 -22.5t-12 -20.5v-7q0 -18 8 -32q2 -8 22 -47l111 -222l123 222q35 63 35 81q0 23 -41 45q-53 29 -54 99q0 145 148 145q47 0 90 -6q100 -14 135 -14 q37 0 107.5 10t105.5 10q66 0 106 -41t40 -110q0 -57 -30 -95t-75 -38q-18 0 -55 8q-27 6 -41 6q-29 0 -43 -14.5t-60 -85.5l-270 -433q-45 -74 -49 -159l-2 -58q-4 -94 65 -94q23 0 64 7t61 7q49 0 81 -38.5t32 -100.5q0 -68 -41 -106.5t-111 -38.5q-51 0 -155.5 10 t-157.5 10q-57 0 -169.5 -10t-170.5 -10q-68 0 -108.5 41t-40.5 106q0 137 116 137q20 0 62.5 -7t62.5 -7q59 0 60 94v58q0 63 -54 149l-303 498q-27 45 -69 45q-12 0 -39 -6q-35 -8 -55 -8q-98 0 -99 124zM493 1597q0 39 39 72q14 10 74 43l190 104q59 33 113 33 q49 0 86 -42t37 -99q0 -76 -133 -127l-187 -72q-86 -33 -125 -33q-51 0 -79 64q-15 32 -15 57z" />
<glyph unicode="&#xde;" horiz-adv-x="1417" d="M37 98q0 41 31.5 69t78.5 28q18 0 51 -5.5t48 -5.5q55 0 55 160v404q0 47 -4 59l4 4q-4 371 -55 371q-14 0 -47 -5.5t-52 -5.5q-47 0 -78.5 28t-31.5 69q0 47 40 76.5t105 29.5q14 0 56 -4l100 -6q59 -6 147 -6q57 0 170 8t170 8q66 0 107 -29.5t41 -76.5q0 -45 -31 -71 t-82 -26q-31 0 -76 7q-37 4 -61 4q-61 0 -61 -49v-109q27 2 53 4q147 8 168 8q223 0 361 -90t138 -235q0 -150 -142 -239t-388 -89q-20 0 -78 2h-57q-55 2 -55 -43v-109q0 -49 61 -49q25 0 61 4q45 6 76 7q51 0 82 -26t31 -71q0 -47 -41 -76.5t-107 -29.5q-57 0 -169.5 8 t-170.5 8q-88 0 -147 -6l-100 -6q-41 -4 -56 -4q-66 0 -105.5 29.5t-39.5 76.5zM662 631q0 -41 10 -50.5t55 -9.5l33 -2q242 -10 241 136q0 139 -217 139q-53 0 -73 -4q-37 -8 -45 -35q-4 -10 -4 -25v-149z" />
<glyph unicode="&#xdf;" horiz-adv-x="1490" d="M-6 127q0 115 100 115q12 0 34 -6.5t32 -6.5q37 0 37 115v449h-97q-106 0 -106 110q0 115 104 115h117q14 166 170 271.5t391 105.5q221 0 366.5 -97.5t145.5 -244.5q0 -72 -49 -134.5t-125 -89.5q-49 -16 -49 -41q0 -29 61 -49q100 -33 197 -112q113 -94 113 -267 q0 -176 -102.5 -285.5t-270.5 -109.5q-154 0 -279 123v-25q0 -82 -84 -81q-100 0 -100 102q0 23 4 70q6 66 4 94l-6 110q0 2 -2 4v7q0 119 145 118q111 0 115 -104q6 -158 139 -158q51 0 85 35t34 88q0 59 -40 93t-169 89q-150 63 -203 106.5t-53 98.5q0 57 35 91t148 81 q106 45 106 115q0 57 -51 93t-133 36q-248 0 -248 -254v-797q0 -109 -70 -108q-27 0 -80 8t-79 8q-41 0 -82 -6q-68 -10 -80 -10q-55 0 -90 38t-35 97z" />
<glyph unicode="&#xe0;" horiz-adv-x="1193" d="M57 276q0 215 187 279q80 27 184 45q145 25 197.5 56.5t52.5 97.5q0 47 -40 78.5t-99 31.5q-68 0 -68 -43q0 -14 2 -28v-9q0 -57 -48 -96t-120 -39q-82 0 -135 49.5t-53 122.5q0 111 116.5 174.5t321.5 63.5q221 0 330 -68q117 -74 116 -274v-424q0 -66 33 -66q16 0 31 2 q6 2 14 2q47 0 80 -32.5t33 -79.5q0 -68 -60.5 -111t-154.5 -43q-168 0 -225 135q-143 -135 -340 -135q-162 0 -258.5 85t-96.5 226zM279 1352q0 57 37.5 99t84.5 42q53 0 113 -33l191 -104q66 -37 75 -45q37 -29 37 -72q0 -45 -28.5 -82t-65.5 -37q-41 0 -125 33l-184 72 q-135 53 -135 127zM387 309q0 -94 111 -94q182 0 182 188v46q-14 -8 -180 -52q-113 -29 -113 -88z" />
<glyph unicode="&#xe1;" horiz-adv-x="1193" d="M57 276q0 215 187 279q80 27 184 45q145 25 197.5 56.5t52.5 97.5q0 47 -40 78.5t-99 31.5q-68 0 -68 -43q0 -14 2 -28v-9q0 -57 -48 -96t-120 -39q-82 0 -135 49.5t-53 122.5q0 111 116.5 174.5t321.5 63.5q221 0 330 -68q117 -74 116 -274v-424q0 -66 33 -66q16 0 31 2 q6 2 14 2q47 0 80 -32.5t33 -79.5q0 -68 -60.5 -111t-154.5 -43q-168 0 -225 135q-143 -135 -340 -135q-162 0 -258.5 85t-96.5 226zM328 1241q0 41 37 72q14 10 73 43l191 104q59 33 112 33q49 0 87 -42t38 -99q0 -74 -135 -127l-184 -72q-84 -33 -125 -33q-49 0 -80 64 q-14 28 -14 57zM387 309q0 -94 111 -94q182 0 182 188v46q-14 -8 -180 -52q-113 -29 -113 -88z" />
<glyph unicode="&#xe2;" horiz-adv-x="1193" d="M57 276q0 215 187 279q80 27 184 45q145 25 197.5 56.5t52.5 97.5q0 47 -40 78.5t-99 31.5q-68 0 -68 -43q0 -14 2 -28v-9q0 -57 -48 -96t-120 -39q-82 0 -135 49.5t-53 122.5q0 111 116.5 174.5t321.5 63.5q221 0 330 -68q117 -74 116 -274v-424q0 -66 33 -66q16 0 31 2 q6 2 14 2q47 0 80 -32.5t33 -79.5q0 -68 -60.5 -111t-154.5 -43q-168 0 -225 135q-143 -135 -340 -135q-162 0 -258.5 85t-96.5 226zM158 1227q0 37 21.5 59.5t86.5 56.5l137 72q125 66 181 66q53 0 172 -66l129 -72q98 -55 98 -110q0 -45 -24.5 -77t-59.5 -32q-37 0 -96 23 l-225 86l-232 -86q-72 -27 -104 -27q-35 0 -59.5 31t-24.5 76zM387 309q0 -94 111 -94q182 0 182 188v46q-14 -8 -180 -52q-113 -29 -113 -88z" />
<glyph unicode="&#xe3;" horiz-adv-x="1193" d="M57 276q0 215 187 279q80 27 184 45q145 25 197.5 56.5t52.5 97.5q0 47 -40 78.5t-99 31.5q-68 0 -68 -43q0 -14 2 -28v-9q0 -57 -48 -96t-120 -39q-82 0 -135 49.5t-53 122.5q0 111 116.5 174.5t321.5 63.5q221 0 330 -68q117 -74 116 -274v-424q0 -66 33 -66q16 0 31 2 q6 2 14 2q47 0 80 -32.5t33 -79.5q0 -68 -60.5 -111t-154.5 -43q-168 0 -225 135q-143 -135 -340 -135q-162 0 -258.5 85t-96.5 226zM152 1245q0 86 79.5 151.5t184.5 65.5q66 0 205 -55q67 -27 110 -27q31 0 55 17l62 41q23 14 51 14q92 0 92 -98q0 -84 -85 -149.5 t-193 -65.5q-80 0 -215 59q-51 23 -78 23q-25 0 -55 -21l-52 -35q-37 -25 -63 -24q-41 0 -69.5 30.5t-28.5 73.5zM387 309q0 -94 111 -94q182 0 182 188v46q-14 -8 -180 -52q-113 -29 -113 -88z" />
<glyph unicode="&#xe4;" horiz-adv-x="1193" d="M57 276q0 215 187 279q80 27 184 45q145 25 197.5 56.5t52.5 97.5q0 47 -40 78.5t-99 31.5q-68 0 -68 -43q0 -14 2 -28v-9q0 -57 -48 -96t-120 -39q-82 0 -135 49.5t-53 122.5q0 111 116.5 174.5t321.5 63.5q221 0 330 -68q117 -74 116 -274v-424q0 -66 33 -66q16 0 31 2 q6 2 14 2q47 0 80 -32.5t33 -79.5q0 -68 -60.5 -111t-154.5 -43q-168 0 -225 135q-143 -135 -340 -135q-162 0 -258.5 85t-96.5 226zM182 1303q0 72 51.5 124t124.5 52q74 0 125.5 -51.5t51.5 -124.5q0 -74 -51.5 -125.5t-125.5 -51.5q-72 0 -124 52.5t-52 124.5zM387 309 q0 -94 111 -94q182 0 182 188v46q-14 -8 -180 -52q-113 -29 -113 -88zM604 1303q0 72 51.5 124t124.5 52q74 0 125 -51.5t51 -124.5q0 -72 -51 -124.5t-125 -52.5t-125 51.5t-51 125.5z" />
<glyph unicode="&#xe5;" horiz-adv-x="1193" d="M57 276q0 215 187 279q80 27 184 45q145 25 197.5 56.5t52.5 97.5q0 47 -40 78.5t-99 31.5q-68 0 -68 -43q0 -14 2 -28v-9q0 -57 -48 -96t-120 -39q-82 0 -135 49.5t-53 122.5q0 111 116.5 174.5t321.5 63.5q221 0 330 -68q117 -74 116 -274v-424q0 -66 33 -66q16 0 31 2 q6 2 14 2q47 0 80 -32.5t33 -79.5q0 -68 -60.5 -111t-154.5 -43q-168 0 -225 135q-143 -135 -340 -135q-162 0 -258.5 85t-96.5 226zM317 1350q0 100 72 172.5t172 72.5q102 0 175 -71.5t73 -173.5t-73 -174t-175 -72q-100 0 -172 71.5t-72 174.5zM387 309q0 -94 111 -94 q182 0 182 188v46q-14 -8 -180 -52q-113 -29 -113 -88zM461 1350q0 -41 30.5 -72t71.5 -31q39 0 70 32t31 73t-30 71.5t-71 30.5t-71.5 -31.5t-30.5 -72.5z" />
<glyph unicode="&#xe6;" horiz-adv-x="1714" d="M57 276q0 227 207 287q70 20 156 35q152 27 204 57.5t52 94.5q0 51 -37 82.5t-96 31.5q-72 0 -72 -51v-22q0 -63 -45 -100.5t-121 -37.5q-84 0 -135 46t-51 122q0 106 111.5 172t293.5 66q233 0 324 -135q137 135 340 135q211 0 337 -127t126 -338q0 -78 -19.5 -107.5 t-72.5 -29.5h-519q-53 0 -53 -45q0 -86 54.5 -142.5t138.5 -56.5t155 70q53 51 72 63q39 27 88 27q59 0 98 -34t39 -89q0 -121 -129 -203t-319 -82q-242 0 -336 131q-12 16 -31 51q-72 -98 -166 -137q-109 -45 -223 -45q-170 0 -270.5 84t-100.5 227zM381 307q0 -92 119 -92 q180 0 180 205q0 16 -2 31q-35 -16 -123 -36t-119 -36q-55 -25 -55 -72zM1001 709q0 -35 43 -35h244q35 0 35 41q0 49 -47 87t-107 38q-88 0 -141 -68q-27 -34 -27 -63z" />
<glyph unicode="&#xe7;" horiz-adv-x="1081" d="M55 514q0 250 147.5 397.5t397.5 147.5q180 0 298 -85t118 -216q0 -82 -53.5 -132.5t-137.5 -50.5q-70 0 -112.5 36.5t-42.5 93.5q0 31 20 61q-47 33 -104 33q-90 0 -146.5 -75t-56.5 -200q0 -129 59.5 -206.5t157.5 -77.5q102 0 152 118q25 57 51 79t84 22 q70 0 112.5 -41t42.5 -109q0 -133 -119.5 -231t-299.5 -109l-48 -100q61 10 80 10q88 0 146.5 -50t58.5 -124q0 -102 -95 -171t-235 -69q-125 0 -207.5 41t-82.5 101q0 29 19.5 51.5t45.5 22.5q20 0 57 -13q102 -35 166 -35q123 0 123 60q0 57 -112 57q-18 0 -57.5 -3 t-57.5 -3q-74 0 -74 68q0 31 21 65l61 105l-22 8q-119 43 -179 92q-66 51 -112 147q-63 131 -64 285z" />
<glyph unicode="&#xe8;" horiz-adv-x="1118" d="M55 506q0 248 144.5 400.5t378.5 152.5q217 0 347 -125t130 -334q0 -86 -21.5 -114.5t-85.5 -28.5h-499q-37 0 -46.5 -7.5t-9.5 -35.5q0 -86 55.5 -143.5t139.5 -57.5q86 0 176 94q61 66 135 66q61 0 99 -35t38 -88q0 -119 -130 -202t-316 -83q-244 0 -389.5 147.5 t-145.5 393.5zM276 1352q0 57 38 99t85 42q53 0 113 -33l190 -104q66 -37 76 -45q37 -29 37 -72q0 -45 -28.5 -82t-63.5 -37q-43 0 -127 33l-184 72q-135 53 -136 127zM403 702q0 -12 6.5 -20t43.5 -8h229q31 0 38 7t7 26q0 53 -47 93t-111 40q-82 0 -133 -64 q-33 -41 -33 -74z" />
<glyph unicode="&#xe9;" horiz-adv-x="1118" d="M55 506q0 248 144.5 400.5t378.5 152.5q217 0 347 -125t130 -334q0 -86 -21.5 -114.5t-85.5 -28.5h-499q-37 0 -46.5 -7.5t-9.5 -35.5q0 -86 55.5 -143.5t139.5 -57.5q86 0 176 94q61 66 135 66q61 0 99 -35t38 -88q0 -119 -130 -202t-316 -83q-244 0 -389.5 147.5 t-145.5 393.5zM303 1241q0 39 39 72q14 10 74 43l190 104q59 33 113 33q49 0 86 -42t37 -99q0 -74 -135 -127l-185 -72q-84 -33 -125 -33q-51 0 -80 64q-14 32 -14 57zM403 702q0 -12 6.5 -20t43.5 -8h229q31 0 38 7t7 26q0 53 -47 93t-111 40q-82 0 -133 -64 q-33 -41 -33 -74z" />
<glyph unicode="&#xea;" horiz-adv-x="1118" d="M55 506q0 248 144.5 400.5t378.5 152.5q217 0 347 -125t130 -334q0 -86 -21.5 -114.5t-85.5 -28.5h-499q-37 0 -46.5 -7.5t-9.5 -35.5q0 -86 55.5 -143.5t139.5 -57.5q86 0 176 94q61 66 135 66q61 0 99 -35t38 -88q0 -119 -130 -202t-316 -83q-244 0 -389.5 147.5 t-145.5 393.5zM156 1227q0 37 21.5 59.5t86.5 56.5l137 72q125 66 181 66q53 0 172 -66l129 -72q98 -55 98 -110q0 -45 -24.5 -77t-59.5 -32q-37 0 -96 23l-226 86l-231 -86q-72 -27 -104 -27q-35 0 -59.5 31t-24.5 76zM403 702q0 -12 6.5 -20t43.5 -8h229q31 0 38 7t7 26 q0 53 -47 93t-111 40q-82 0 -133 -64q-33 -41 -33 -74z" />
<glyph unicode="&#xeb;" horiz-adv-x="1118" d="M55 506q0 248 144.5 400.5t378.5 152.5q217 0 347 -125t130 -334q0 -86 -21.5 -114.5t-85.5 -28.5h-499q-37 0 -46.5 -7.5t-9.5 -35.5q0 -86 55.5 -143.5t139.5 -57.5q86 0 176 94q61 66 135 66q61 0 99 -35t38 -88q0 -119 -130 -202t-316 -83q-244 0 -389.5 147.5 t-145.5 393.5zM195 1303q0 72 51 124t125 52t125 -51.5t51 -124.5q0 -74 -51 -125.5t-125 -51.5t-125 52.5t-51 124.5zM403 702q0 -12 6.5 -20t43.5 -8h229q31 0 38 7t7 26q0 53 -47 93t-111 40q-82 0 -133 -64q-33 -41 -33 -74zM616 1303q0 72 51.5 124t125.5 52t125 -51.5 t51 -124.5q0 -72 -51 -124.5t-125 -52.5t-125.5 51.5t-51.5 125.5z" />
<glyph unicode="&#xec;" horiz-adv-x="745" d="M35 127q0 117 98 117l53 -13q8 -2 15 -2q37 0 37 115v332q0 117 -35 117q-6 0 -37 -11q-20 -4 -33 -4q-98 0 -98 115q0 61 34.5 99t92.5 38q23 0 65 -6q72 -10 115 -10q35 0 90.5 8t61.5 8q57 0 57 -80v-616q0 -104 39 -105q8 0 29.5 5.5t35.5 5.5q86 0 86 -107 q0 -141 -120 -141q-20 0 -115 10q-57 6 -131 6q-37 0 -108.5 -8t-106.5 -8q-55 0 -90 38t-35 97zM92 1352q0 57 38 99t85 42q53 0 113 -33l190 -104q66 -37 76 -45q37 -29 37 -72q0 -45 -29.5 -82t-64.5 -37q-39 0 -125 33l-187 72q-133 51 -133 127z" />
<glyph unicode="&#xed;" horiz-adv-x="745" d="M29 127q0 117 100 117q16 0 36.5 -7.5t31.5 -7.5q35 0 34 115v332q0 117 -34 117q-8 0 -32 -7.5t-36 -7.5q-100 0 -100 115q0 61 35.5 99t93.5 38q29 0 88 -8t88 -8q35 0 94.5 8t69.5 8q57 0 57 -80v-616q0 -104 39 -105q12 0 33 7q10 4 32 4q88 0 89 -107 q0 -141 -123 -141q-25 0 -123 10q-59 6 -133 6q-37 0 -108 -8t-105 -8q-57 0 -92 38t-35 97zM104 1241q0 41 37 72q14 10 74 43l191 104q59 33 112 33q49 0 86 -42t37 -99q0 -76 -133 -127l-186 -72q-86 -33 -125 -33q-51 0 -80 64q-13 26 -13 57z" />
<glyph unicode="&#xee;" horiz-adv-x="745" d="M8 1229q0 57 92 114l117 72q106 66 156 66q47 0 147 -66l111 -72q84 -55 84 -110q0 -45 -21.5 -77t-50.5 -32q-31 0 -82 23l-192 86l-199 -86q-61 -27 -90 -27q-31 0 -51.5 31t-20.5 78zM35 127q0 117 98 117l53 -13q8 -2 15 -2q37 0 37 115v332q0 117 -35 117 q-6 0 -37 -11q-20 -4 -33 -4q-98 0 -98 115q0 61 34.5 99t92.5 38q23 0 65 -6q72 -10 115 -10q35 0 90.5 8t61.5 8q57 0 57 -80v-616q0 -104 39 -105q8 0 29.5 5.5t35.5 5.5q86 0 86 -107q0 -141 -120 -141q-20 0 -115 10q-57 6 -131 6q-37 0 -108.5 -8t-106.5 -8 q-55 0 -90 38t-35 97z" />
<glyph unicode="&#xef;" horiz-adv-x="745" d="M-27 1303q0 72 52.5 124t124.5 52q74 0 126 -51.5t52 -124.5q0 -74 -52 -125.5t-124 -51.5q-74 0 -126.5 52.5t-52.5 124.5zM35 127q0 117 98 117l53 -13q8 -2 15 -2q37 0 37 115v332q0 117 -35 117q-6 0 -37 -11q-20 -4 -33 -4q-98 0 -98 115q0 61 34.5 99t92.5 38 q23 0 65 -6q72 -10 115 -10q35 0 90.5 8t61.5 8q57 0 57 -80v-616q0 -104 39 -105q8 0 29.5 5.5t35.5 5.5q86 0 86 -107q0 -141 -120 -141q-20 0 -115 10q-57 6 -131 6q-37 0 -108.5 -8t-106.5 -8q-55 0 -90 38t-35 97zM395 1303q0 72 52.5 124t123.5 52q74 0 126.5 -51.5 t52.5 -124.5q0 -72 -52.5 -124.5t-126.5 -52.5q-72 0 -124 51.5t-52 125.5z" />
<glyph unicode="&#xf0;" horiz-adv-x="1155" d="M55 436q0 219 137.5 341t385.5 122q31 0 59 -2q-20 31 -43 59q-49 59 -111 111l-104 -104q-76 -78 -131 -23q-59 59 20 137l27 27l51 51q-27 14 -53 29q-98 47 -134 77.5t-36 75.5q0 41 37 69t88 28q94 0 223 -54q35 -14 68 -30l90 90q84 84 139 28q60 -59 -20 -137 l-64 -63l31 -23q266 -195 344 -450q39 -127 39 -281q4 -33 4 -70q0 -223 -136.5 -348t-379.5 -125q-254 0 -392.5 122t-138.5 343zM383 436q0 -119 52 -185.5t147 -66.5q190 0 190 252q1 250 -194 250q-90 0 -142.5 -67.5t-52.5 -182.5z" />
<glyph unicode="&#xf1;" horiz-adv-x="1380" d="M31 129q0 115 98 115q16 0 36.5 -7.5t31.5 -7.5q35 0 34 115v332q0 117 -34 117q-8 0 -32 -7.5t-36 -7.5q-98 0 -98 113q0 61 33.5 100t89.5 39q16 0 69 -10q31 -6 53 -6q25 0 84.5 8t65.5 8q55 0 55 -57v-99q158 184 357 185q213 0 301 -160q47 -82 47 -258v-307 q0 -104 41 -105q10 0 30 7q10 4 31 4q90 0 90 -107q0 -141 -123 -141q-33 0 -98 8t-98 8q-51 0 -108.5 -8t-94.5 -8q-121 0 -121 125q0 109 84 114q55 4 55 52v286q0 119 -30.5 167t-104.5 48q-84 0 -138 -57t-54 -145v-213q0 -92 8 -111.5t47 -26.5q74 -10 74 -110 q0 -129 -109 -129q-31 0 -75 6q-76 10 -113 10t-109.5 -8t-109.5 -8q-129 0 -129 137zM285 1245q0 86 79.5 151.5t184.5 65.5q63 0 184 -47l21 -8q67 -27 110 -27q29 0 58 17l59 41q20 14 51 14q92 0 92 -98q0 -84 -84 -149.5t-194 -65.5q-80 0 -215 59q-51 23 -78 23 q-25 0 -55 -21l-52 -35q-37 -25 -63 -24q-41 0 -69.5 30.5t-28.5 73.5z" />
<glyph unicode="&#xf2;" horiz-adv-x="1155" d="M55 512q0 258 137.5 402.5t385.5 144.5q244 0 384 -143.5t140 -393.5q0 -262 -136 -409.5t-380 -147.5q-254 0 -392.5 143.5t-138.5 403.5zM283 1352q0 57 36.5 99t86.5 42q53 0 112 -33l191 -104q63 -35 75 -45q35 -29 35 -72q0 -45 -28.5 -82t-63.5 -37q-43 0 -127 33 l-184 72q-133 51 -133 127zM383 512q0 -139 52 -217t147 -78q190 0 190 295q1 295 -194 295q-90 0 -142.5 -79t-52.5 -216z" />
<glyph unicode="&#xf3;" horiz-adv-x="1155" d="M55 512q0 258 137.5 402.5t385.5 144.5q244 0 384 -143.5t140 -393.5q0 -262 -136 -409.5t-380 -147.5q-254 0 -392.5 143.5t-138.5 403.5zM309 1241q0 41 37 72q14 10 74 43l190 104q59 33 113 33q49 0 87 -42t38 -99q0 -74 -135 -127l-185 -72q-84 -33 -127 -33 q-51 0 -79 64q-13 26 -13 57zM383 512q0 -139 52 -217t147 -78q190 0 190 295q1 295 -194 295q-90 0 -142.5 -79t-52.5 -216z" />
<glyph unicode="&#xf4;" horiz-adv-x="1155" d="M55 512q0 258 137.5 402.5t385.5 144.5q244 0 384 -143.5t140 -393.5q0 -262 -136 -409.5t-380 -147.5q-254 0 -392.5 143.5t-138.5 403.5zM166 1227q0 37 21.5 59.5t86.5 56.5l138 72q125 66 180 66q53 0 172 -66l129 -72q98 -55 98 -110q0 -45 -24.5 -77t-59.5 -32 q-37 0 -96 23l-225 86l-232 -86q-72 -27 -104 -27q-35 0 -59.5 31t-24.5 76zM383 512q0 -139 52 -217t147 -78q190 0 190 295q1 295 -194 295q-90 0 -142.5 -79t-52.5 -216z" />
<glyph unicode="&#xf5;" horiz-adv-x="1155" d="M55 512q0 258 137.5 402.5t385.5 144.5q244 0 384 -143.5t140 -393.5q0 -262 -136 -409.5t-380 -147.5q-254 0 -392.5 143.5t-138.5 403.5zM131 1245q0 86 80 151.5t186 65.5q66 0 205 -55q68 -27 109 -27q33 0 57 17l59 41q20 14 52 14q92 0 92 -98q0 -84 -84 -149.5 t-195 -65.5q-80 0 -215 59q-51 23 -78 23q-25 0 -55 -21l-51 -35q-37 -25 -64 -24q-41 0 -69.5 30.5t-28.5 73.5zM383 512q0 -139 52 -217t147 -78q190 0 190 295q1 295 -194 295q-90 0 -142.5 -79t-52.5 -216z" />
<glyph unicode="&#xf6;" horiz-adv-x="1155" d="M55 512q0 258 137.5 402.5t385.5 144.5q244 0 384 -143.5t140 -393.5q0 -262 -136 -409.5t-380 -147.5q-254 0 -392.5 143.5t-138.5 403.5zM190 1303q0 72 52.5 124t124.5 52q74 0 126 -51.5t52 -124.5q0 -74 -52 -125.5t-124 -51.5q-74 0 -126.5 52.5t-52.5 124.5z M383 512q0 -139 52 -217t147 -78q190 0 190 295q1 295 -194 295q-90 0 -142.5 -79t-52.5 -216zM612 1303q0 72 52.5 124t123.5 52q74 0 126.5 -51.5t52.5 -124.5q0 -72 -52.5 -124.5t-126.5 -52.5q-72 0 -124 51.5t-52 125.5z" />
<glyph unicode="&#xf7;" d="M68 573v246h888v-246h-888zM358 348q0 63 45.5 107.5t108.5 44.5t107.5 -44t44.5 -108q0 -63 -45.5 -107t-106.5 -44q-63 0 -108.5 44t-45.5 107zM358 1044q0 63 45.5 107.5t108.5 44.5t107.5 -44t44.5 -108q0 -63 -45.5 -107t-106.5 -44q-63 0 -108.5 44t-45.5 107z" />
<glyph unicode="&#xf8;" horiz-adv-x="1155" d="M55 516q0 256 137.5 399.5t378.5 143.5q104 0 228 -37l65 104q25 37 54 50q20 6 71 6q98 0 98 -43q0 -19 -16 -39l-117 -178q145 -150 146 -402q0 -264 -137.5 -409.5t-384.5 -145.5q-102 0 -228 39l-45 -67q-33 -49 -57.5 -61.5t-87.5 -12.5q-92 0 -92 31q0 14 18 43 l111 169q-57 70 -86 134q-55 125 -56 276zM371 510q0 -77 20 -143l254 436q-35 16 -72 16q-203 0 -202 -309zM502 223q49 -18 86 -18q197 0 196 315q0 80 -20 148z" />
<glyph unicode="&#xf9;" horiz-adv-x="1304" d="M0 893q0 137 125 137q25 0 76 -8t75 -8q25 0 74 8t74 8q61 0 61 -86l4 -545q6 -160 127 -159q184 0 185 256v190q0 104 -47 105q-12 0 -32 -5.5t-32 -5.5q-76 0 -76 109q0 141 115 141q29 0 84 -8t82 -8q8 0 88 10q47 6 68 6q66 0 65 -74v-622q0 -102 39 -103 q16 0 28.5 4.5t35.5 4.5q88 0 88 -107q0 -141 -121 -141q-25 0 -73 8t-73 8q-23 0 -66.5 -8t-66.5 -8q-59 -1 -59 65v80q-135 -172 -359 -172q-94 0 -171.5 41t-111.5 109.5t-34 253.5v317q0 72 -9 84t-30 12h-20q-6 -2 -21 -2q-92 0 -92 113zM330 1352q0 57 38 99t87 42 q51 0 110 -33l191 -104q66 -37 75 -45q37 -29 37 -72q0 -45 -28.5 -82t-63.5 -37q-43 0 -127 33l-184 72q-135 53 -135 127z" />
<glyph unicode="&#xfa;" horiz-adv-x="1304" d="M0 893q0 137 125 137q25 0 76 -8t75 -8q25 0 74 8t74 8q61 0 61 -86l4 -545q6 -160 127 -159q184 0 185 256v190q0 104 -47 105q-12 0 -32 -5.5t-32 -5.5q-76 0 -76 109q0 141 115 141q29 0 84 -8t82 -8q8 0 88 10q47 6 68 6q66 0 65 -74v-622q0 -102 39 -103 q16 0 28.5 4.5t35.5 4.5q88 0 88 -107q0 -141 -121 -141q-25 0 -73 8t-73 8q-23 0 -66.5 -8t-66.5 -8q-59 -1 -59 65v80q-135 -172 -359 -172q-94 0 -171.5 41t-111.5 109.5t-34 253.5v317q0 72 -9 84t-30 12h-20q-6 -2 -21 -2q-92 0 -92 113zM356 1241q0 41 37 72 q14 10 74 43l190 104q59 33 113 33q49 0 87 -42t38 -99q0 -74 -135 -127l-185 -72q-84 -33 -126 -33q-49 0 -80 64q-13 24 -13 57z" />
<glyph unicode="&#xfb;" horiz-adv-x="1304" d="M0 893q0 137 125 137q25 0 76 -8t75 -8q25 0 74 8t74 8q61 0 61 -86l4 -545q6 -160 127 -159q184 0 185 256v190q0 104 -47 105q-12 0 -32 -5.5t-32 -5.5q-76 0 -76 109q0 141 115 141q29 0 84 -8t82 -8q8 0 88 10q47 6 68 6q66 0 65 -74v-622q0 -102 39 -103 q16 0 28.5 4.5t35.5 4.5q88 0 88 -107q0 -141 -121 -141q-25 0 -73 8t-73 8q-23 0 -66.5 -8t-66.5 -8q-59 -1 -59 65v80q-135 -172 -359 -172q-94 0 -171.5 41t-111.5 109.5t-34 253.5v317q0 72 -9 84t-30 12h-20q-6 -2 -21 -2q-92 0 -92 113zM186 1227q0 37 21.5 59.5 t87.5 56.5l137 72q125 66 180 66q53 0 172 -66l129 -72q98 -55 99 -110q0 -45 -24.5 -77t-57.5 -32q-37 0 -96 23l-226 86l-231 -86q-72 -27 -107 -27t-59.5 31t-24.5 76z" />
<glyph unicode="&#xfc;" horiz-adv-x="1304" d="M0 893q0 137 125 137q25 0 76 -8t75 -8q25 0 74 8t74 8q61 0 61 -86l4 -545q6 -160 127 -159q184 0 185 256v190q0 104 -47 105q-12 0 -32 -5.5t-32 -5.5q-76 0 -76 109q0 141 115 141q29 0 84 -8t82 -8q8 0 88 10q47 6 68 6q66 0 65 -74v-622q0 -102 39 -103 q16 0 28.5 4.5t35.5 4.5q88 0 88 -107q0 -141 -121 -141q-25 0 -73 8t-73 8q-23 0 -66.5 -8t-66.5 -8q-59 -1 -59 65v80q-135 -172 -359 -172q-94 0 -171.5 41t-111.5 109.5t-34 253.5v317q0 72 -9 84t-30 12h-20q-6 -2 -21 -2q-92 0 -92 113zM197 1303q0 72 52 124t124 52 q74 0 126 -51.5t52 -124.5q0 -74 -52 -125.5t-124 -51.5q-74 0 -126 52.5t-52 124.5zM618 1303q0 72 52.5 124t124.5 52q74 0 126 -51.5t52 -124.5q0 -72 -52 -124.5t-126 -52.5q-72 0 -124.5 51.5t-52.5 125.5z" />
<glyph unicode="&#xfd;" horiz-adv-x="1267" d="M-47 -180q0 76 48 124t122 48q63 0 102 -38t39 -97q0 -23 -4 -45q27 -12 51 -13q55 0 105.5 65.5t50.5 110.5q0 41 -70 207l-229 543q-25 57 -49 57q-2 0 -31 -4h-8q-6 -2 -10 -2q-104 0 -105 117q0 57 36 97t89 40q33 0 97.5 -8t97.5 -8q39 0 131 8t98 8q113 0 113 -119 q0 -84 -86 -98q-43 -6 -43 -37q0 -16 12 -55l139 -440l139 421q16 49 17 74q0 23 -33 35l-37 14q-43 16 -43 86q0 51 30 85t75 34q31 0 94 -8t94 -8q33 0 98.5 8t98.5 8q123 0 123 -133q0 -47 -28 -83t-67 -36q-8 0 -27.5 4t-27.5 4q-37 0 -59 -61l-27 -72l-176 -458 q-82 -213 -113.5 -276.5t-91.5 -139.5q-164 -207 -401 -207q-145 0 -239.5 69.5t-94.5 178.5zM358 1253q0 39 39 72q14 10 74 43l190 104q59 33 113 33q49 0 86 -42t37 -99q0 -76 -133 -127l-187 -72q-86 -33 -125 -33q-51 0 -79 64q-15 32 -15 57z" />
<glyph unicode="&#xfe;" horiz-adv-x="1230" d="M-12 -219q0 115 100 115q16 0 31 -7q37 -8 35 -8q37 0 36 117v1026q0 115 -34 115q-6 0 -37 -11q-20 -4 -33 -4q-98 0 -98 115q0 59 32.5 98t83.5 39h15l71 -10q14 -4 60 -4q59 0 110 8q27 4 39 4q52 1 52 -71v-408q127 164 317 164q186 0 297 -144.5t111 -388.5 q0 -252 -113 -399t-303 -147q-76 0 -137 28q-39 18 -119 78v-158q0 -63 49 -63q20 0 47 6q37 4 53 4q94 0 95 -106q0 -123 -127 -123q-37 0 -113 8q-94 10 -186 10q-39 0 -175 -16q-25 -2 -36 -2q-53 0 -88 37.5t-35 97.5zM508 520q0 -129 45 -204.5t121 -75.5 q78 0 125 75.5t47 204.5q0 127 -46 203t-122 76q-80 0 -125 -74t-45 -205z" />
<glyph unicode="&#xff;" horiz-adv-x="1267" d="M-47 -180q0 76 48 124t122 48q63 0 102 -38t39 -97q0 -23 -4 -45q27 -12 51 -13q55 0 105.5 65.5t50.5 110.5q0 41 -70 207l-229 543q-25 57 -49 57q-2 0 -31 -4h-8q-6 -2 -10 -2q-104 0 -105 117q0 57 36 97t89 40q33 0 97.5 -8t97.5 -8q39 0 131 8t98 8q113 0 113 -119 q0 -84 -86 -98q-43 -6 -43 -37q0 -16 12 -55l139 -440l139 421q16 49 17 74q0 23 -33 35l-37 14q-43 16 -43 86q0 51 30 85t75 34q31 0 94 -8t94 -8q33 0 98.5 8t98.5 8q123 0 123 -133q0 -47 -28 -83t-67 -36q-8 0 -27.5 4t-27.5 4q-37 0 -59 -61l-27 -72l-176 -458 q-82 -213 -113.5 -276.5t-91.5 -139.5q-164 -207 -401 -207q-145 0 -239.5 69.5t-94.5 178.5zM268 1303q0 72 52.5 124t123.5 52q74 0 126.5 -51.5t52.5 -124.5q0 -74 -52.5 -125.5t-124.5 -51.5q-74 0 -126 52.5t-52 124.5zM690 1303q0 72 52.5 124t123.5 52 q74 0 126 -51.5t52 -124.5q0 -72 -52 -124.5t-126 -52.5q-72 0 -124 51.5t-52 125.5z" />
<glyph unicode="&#x152;" horiz-adv-x="2162" d="M61 657q0 350 162 548t449 198q231 0 364 -176v67q0 80 94 80q43 0 138 -4q88 -2 137 -2l221 2h172q94 4 129 4q119 0 119 -102q0 -31 -7 -93.5t-7 -95.5q0 -35 9 -99t9 -91q0 -63 -42 -102t-112 -39q-156 0 -155 151q0 27 10 77t10 75q0 61 -100 61h-207 q-102 0 -125.5 -17.5t-23.5 -92.5v-91q0 -53 11 -66t56 -13q80 0 80 57v14q-2 12 -3 20.5t-1 28.5q0 88 106 88q96 0 97 -94q0 -35 -6.5 -106.5t-6.5 -106.5q0 -61 9 -139q6 -59 6 -98q0 -113 -103 -113q-106 0 -106 100q0 10 3 32t3 32q0 43 -76 43q-43 0 -54 -10.5 t-13 -51.5l-2 -28v-139q0 -63 27.5 -89t99.5 -26h127q121 0 169 22.5t48 77.5q0 23 -7.5 69t-7.5 70q0 72 43 116t113 44t110.5 -42t40.5 -111q0 -45 -6 -101q-10 -92 -10 -139q0 -39 8 -92q10 -66 11 -78q0 -96 -144 -96q-45 0 -96 4q-154 12 -432 12q-57 0 -234 -14 q-33 -2 -55 -2q-74 0 -74 84v76q-72 -100 -162 -140q-106 -47 -227 -47q-266 0 -426 188.5t-160 505.5zM438 598q0 -348 269 -348q135 0 196.5 100.5t61.5 319.5q0 221 -50 321q-61 125 -213 125q-125 0 -184 -102q-55 -94 -74 -314l-2 -24q-4 -41 -4 -78z" />
<glyph unicode="&#x153;" horiz-adv-x="1826" d="M53 508q0 260 139.5 405.5t389.5 145.5q209 0 362 -125q152 125 356 125q213 0 338 -126t125 -343q0 -78 -16 -103q-20 -31 -92 -30h-500q-49 0 -49 -41q0 -90 55.5 -146.5t143.5 -56.5q74 0 145 74q84 86 160 86q57 0 96 -36t39 -87q0 -121 -130.5 -203t-320.5 -82 q-182 0 -354 121q-156 -121 -365 -121q-246 0 -384 143.5t-138 399.5zM383 522q0 -305 201 -305q197 0 196 297q1 293 -198 293t-199 -285zM1114 705q0 -31 45 -31h240q41 0 41 35q0 53 -46 92t-108 39q-66 0 -119 -42t-53 -93z" />
<glyph unicode="&#x178;" horiz-adv-x="1527" d="M-33 1214q0 160 144 160q37 0 116.5 -10t122.5 -10q57 0 144 12q57 8 92 8q139 0 139 -153q0 -63 -47 -88q-29 -16 -41 -22.5t-12 -20.5v-7q0 -18 8 -32q2 -8 22 -47l111 -222l123 222q35 63 35 81q0 23 -41 45q-53 29 -54 99q0 145 148 145q47 0 90 -6q100 -14 135 -14 q37 0 107.5 10t105.5 10q66 0 106 -41t40 -110q0 -57 -30 -95t-75 -38q-18 0 -55 8q-27 6 -41 6q-29 0 -43 -14.5t-60 -85.5l-270 -433q-45 -74 -49 -159l-2 -58q-4 -94 65 -94q23 0 64 7t61 7q49 0 81 -38.5t32 -100.5q0 -68 -41 -106.5t-111 -38.5q-51 0 -155.5 10 t-157.5 10q-57 0 -169.5 -10t-170.5 -10q-68 0 -108.5 41t-40.5 106q0 137 116 137q20 0 62.5 -7t62.5 -7q59 0 60 94v58q0 63 -54 149l-303 498q-27 45 -69 45q-12 0 -39 -6q-35 -8 -55 -8q-98 0 -99 124zM389 1647q0 72 52.5 124t125.5 52q72 0 124 -51.5t52 -124.5 q0 -74 -52 -125.5t-124 -51.5q-74 0 -126 52.5t-52 124.5zM811 1647q0 72 52 124t126 52q72 0 124 -51.5t52 -124.5q0 -72 -52 -124.5t-124 -52.5q-74 0 -126 51.5t-52 125.5z" />
<glyph unicode="&#x2c6;" horiz-adv-x="1005" d="M92 1227q0 61 107 116l137 72q125 66 180 66q53 0 172 -66l129 -72q98 -55 98 -110q0 -45 -24.5 -77t-56.5 -32q-38 0 -97 23l-225 86l-231 -86q-72 -27 -107 -27t-58.5 31t-23.5 76z" />
<glyph unicode="&#x2dc;" horiz-adv-x="1005" d="M57 1245q0 86 80 151.5t185 65.5q63 0 204 -55q68 -27 111 -27q31 0 55 17l62 41q23 14 51 14q92 0 92 -98q0 -84 -85 -149.5t-194 -65.5q-80 0 -215 59q-51 23 -77 23q-25 0 -56 -21l-51 -35q-37 -25 -63 -24q-41 0 -70 30.5t-29 73.5z" />
<glyph unicode="&#x2000;" horiz-adv-x="971" />
<glyph unicode="&#x2001;" horiz-adv-x="1942" />
<glyph unicode="&#x2002;" horiz-adv-x="971" />
<glyph unicode="&#x2003;" horiz-adv-x="1942" />
<glyph unicode="&#x2004;" horiz-adv-x="647" />
<glyph unicode="&#x2005;" horiz-adv-x="485" />
<glyph unicode="&#x2006;" horiz-adv-x="323" />
<glyph unicode="&#x2007;" horiz-adv-x="323" />
<glyph unicode="&#x2008;" horiz-adv-x="242" />
<glyph unicode="&#x2009;" horiz-adv-x="388" />
<glyph unicode="&#x200a;" horiz-adv-x="107" />
<glyph unicode="&#x2010;" horiz-adv-x="671" d="M72 532q0 133 108 134h62q55 -2 94 -2q41 0 94 2h59q111 0 111 -127q0 -82 -24.5 -115t-86.5 -33q-25 0 -76 2t-77 2q-27 0 -78 -2t-76 -2q-111 0 -110 141z" />
<glyph unicode="&#x2011;" horiz-adv-x="671" d="M72 532q0 133 108 134h62q55 -2 94 -2q41 0 94 2h59q111 0 111 -127q0 -82 -24.5 -115t-86.5 -33q-25 0 -76 2t-77 2q-27 0 -78 -2t-76 -2q-111 0 -110 141z" />
<glyph unicode="&#x2012;" horiz-adv-x="671" d="M72 532q0 133 108 134h62q55 -2 94 -2q41 0 94 2h59q111 0 111 -127q0 -82 -24.5 -115t-86.5 -33q-25 0 -76 2t-77 2q-27 0 -78 -2t-76 -2q-111 0 -110 141z" />
<glyph unicode="&#x2013;" d="M68 573v246h888v-246h-888z" />
<glyph unicode="&#x2014;" horiz-adv-x="1677" d="M68 522q0 78 34.5 111t118.5 33q25 0 80 -2q75 -3 274 -5l134 -2l395 2q98 0 272 5q55 2 80 2q154 0 154 -131q0 -143 -154 -144q-29 0 -80 2q-82 4 -272 6l-133 2l-396 -2q-190 -2 -274 -6q-53 -2 -80 -2q-154 0 -153 131z" />
<glyph unicode="&#x2018;" horiz-adv-x="671" d="M127 819q0 244 221 516q55 68 98 68q76 0 76 -86q0 -49 -45 -115q-117 -172 -117 -227q0 -31 46 -43q151 -41 151 -197q0 -86 -55.5 -145.5t-136.5 -59.5q-100 0 -169 83t-69 206z" />
<glyph unicode="&#x2019;" horiz-adv-x="671" d="M115 1196q0 88 56 147.5t138 59.5q100 0 168 -84t68 -205q0 -248 -219 -518q-53 -66 -99 -66q-76 0 -75 84q0 51 43 115q119 174 118 227q0 29 -47 43q-151 43 -151 197z" />
<glyph unicode="&#x201a;" horiz-adv-x="671" d="M115 180q0 88 56 147.5t138 59.5q100 0 168 -84t68 -205q0 -248 -219 -518q-53 -66 -99 -65q-76 0 -75 84q0 51 43 114q117 170 116 228q0 31 -45 43q-151 42 -151 196z" />
<glyph unicode="&#x201c;" horiz-adv-x="1193" d="M125 819q0 244 221 516q55 68 98 68q76 0 76 -86q0 -49 -45 -115q-117 -172 -117 -227q0 -31 48 -43q149 -39 149 -197q0 -86 -55.5 -145.5t-137.5 -59.5q-100 0 -168.5 83t-68.5 206zM647 819q0 242 221 516q55 68 99 68q76 0 75 -86q0 -49 -43 -115 q-117 -176 -116 -227q0 -31 45 -43q149 -41 149 -197q0 -86 -55 -145.5t-137 -59.5q-100 0 -169 83t-69 206z" />
<glyph unicode="&#x201d;" horiz-adv-x="1193" d="M115 1196q0 88 56 147.5t138 59.5q100 0 168 -84t68 -205q0 -248 -219 -518q-53 -66 -99 -66q-76 0 -75 84q0 51 43 115q119 172 118 227q0 29 -47 43q-151 43 -151 197zM637 1196q0 88 56.5 147.5t135.5 59.5q100 0 169 -84t69 -205q0 -248 -219 -518q-53 -66 -98 -66 q-76 0 -76 84q0 51 43 115q117 174 117 227q0 31 -46 43q-151 43 -151 197z" />
<glyph unicode="&#x201e;" horiz-adv-x="1193" d="M115 180q0 88 56 147.5t138 59.5q100 0 168 -84t68 -205q0 -248 -219 -518q-53 -66 -99 -65q-76 0 -75 84q0 53 43 114q117 170 116 228q0 31 -45 43q-151 42 -151 196zM637 180q0 88 56.5 147.5t137.5 59.5q100 0 168 -84t68 -205q0 -246 -221 -518q-53 -66 -98 -65 q-76 0 -76 84q0 49 45 114q117 170 117 228q0 31 -46 43q-151 42 -151 196z" />
<glyph unicode="&#x2022;" horiz-adv-x="1366" d="M401 696q0 119 83 203t200 84q115 0 198 -84t83 -203t-83 -202.5t-198 -83.5q-117 0 -200 83.5t-83 202.5z" />
<glyph unicode="&#x2026;" horiz-adv-x="2013" d="M129 174q0 86 60.5 146.5t146.5 60.5t146.5 -60.5t60.5 -146.5t-60.5 -147.5t-146.5 -61.5t-146.5 61.5t-60.5 147.5zM799 174q0 86 61.5 146.5t147.5 60.5q84 0 144 -60.5t60 -146.5t-60 -147.5t-144 -61.5q-86 0 -147.5 61.5t-61.5 147.5zM1470 174q0 86 60.5 146.5 t146.5 60.5t146.5 -60.5t60.5 -146.5t-60.5 -147.5t-146.5 -61.5t-146.5 61.5t-60.5 147.5z" />
<glyph unicode="&#x202f;" horiz-adv-x="388" />
<glyph unicode="&#x2039;" horiz-adv-x="628" d="M45 522q0 41 41 80l209 203q84 82 127 82q33 0 56.5 -24.5t23.5 -59.5q0 -42 -45 -103l-109 -147q-16 -23 -16 -37q0 -10 16 -27l17 -20l86 -94q78 -86 77 -125q0 -76 -82 -76q-57 0 -143 76l-164 143q-94 82 -94 129z" />
<glyph unicode="&#x203a;" horiz-adv-x="628" d="M100 813q0 74 82 74q59 0 146 -76l161 -143q94 -84 95 -129q0 -41 -41 -80l-209 -203q-84 -82 -127 -82q-31 0 -54.5 25.5t-23.5 58.5q0 45 43 102l109 148q16 23 16 37q0 10 -14 26l-19 21l-86 94q-78 86 -78 127z" />
<glyph unicode="&#x205f;" horiz-adv-x="485" />
<glyph unicode="&#x20ac;" horiz-adv-x="1341" d="M53 823q0 76 68 76h67q76 504 508 504q213 0 308 -123q14 66 39.5 90.5t70.5 24.5q49 0 79 -33t34 -67.5t4 -166.5q0 -137 -19.5 -218t-119.5 -81q-137 0 -148 132q-6 70 -56 112.5t-124 42.5q-174 0 -227 -219h170q78 0 77 -76q0 -37 -20.5 -58.5t-52.5 -21.5h-193 q-2 -16 -2 -59v-33h176q76 0 76 -76q0 -80 -72 -79h-166q39 -244 236 -244q84 0 133 47t53 133q2 61 42 95t106 34q152 0 151 -156q0 -199 -141 -320.5t-356 -121.5q-498 0 -570 531h-57q-72 0 -72 81q0 76 68 76h51v92h-49q-72 0 -72 82z" />
<glyph unicode="&#x2122;" horiz-adv-x="2095" d="M39 1104q0 23 4 55q2 16 2 58q0 16 -2 51t-2 51q0 51 51 51q25 0 68 -4q63 -6 262 -6q201 0 262 6q41 4 66 4q53 0 53 -51q0 -16 -3 -51t-3 -54q0 -33 4 -55q4 -53 4 -57q0 -94 -88 -94t-88 100q0 12 4 35.5t4 36.5q0 43 -51 43q-61 0 -62 -78v-338q0 -72 39 -72 q12 0 38 4t38 4q70 0 70 -69q0 -92 -86 -92q-33 0 -100.5 6t-100.5 6q-39 0 -121 -8q-41 -4 -80 -4q-88 0 -88 86q0 76 70 75q14 0 40 -4t38 -4q39 0 38 72v338q0 78 -57 78t-57 -41q0 -10 6 -39q0 -4 2 -17v-16q0 -102 -88 -102q-86 0 -86 96zM846 666q0 78 63 77 q6 0 26.5 -4t29.5 -4q33 0 32 80v324q0 78 -32 78q-4 0 -29 -5q-10 -4 -27 -4q-63 0 -63 78q0 84 86 84q37 0 94 -6q39 -4 98 -4q29 0 85.5 5t84.5 5q33 0 47 -20q9 -11 17 -52l96 -426l102 408q23 90 72 90q27 0 79 -5t79 -5q31 0 93.5 5t92.5 5q84 0 84 -84q0 -78 -61 -78 q-18 0 -29 4q-20 4 -29 5q-31 0 -30 -78v-324q0 -80 30 -80q10 0 29 4t27 4q63 0 63 -77q0 -84 -84 -84q-31 0 -77 6t-68 6q-23 0 -65 -6t-64 -6q-78 0 -78 86q0 72 47 71q4 0 10 -2h15q23 0 22 64v440l-162 -573q-20 -74 -69 -74h-74q-49 0 -66 65l-153 582v-440 q0 -63 22 -64h15q2 2 10 2q47 0 47 -71q0 -86 -78 -86q-23 0 -68.5 6t-70.5 6q-35 0 -68 -4q-82 -10 -71 -10q-35 0 -58.5 24.5t-23.5 61.5z" />
<glyph unicode="&#x25fc;" horiz-adv-x="1034" d="M0 0v1034h1034v-1034h-1034z" />
</font>
</defs>
</svg>
